<svg width="18503" height="3857" viewBox="0 0 18503 3857" fill="none" xmlns="http://www.w3.org/2000/svg">
<path d="M2440.49 3443.91C2543.28 3341.12 2543.3 3174.47 2440.5 3071.67C2440.49 3071.67 2440.49 3071.67 2440.49 3071.66L2440.84 3071.31L2441.19 3070.95L2513.65 3142.87L2513.3 3143.22L2513.65 3142.87C2616.45 3245.65 2783.13 3245.67 2885.94 3142.87C2988.74 3040.08 2993.23 2873.4 2890.43 2770.6L2890.33 2770.51L2890.3 2770.38L2889.35 2766.82L2888.87 2765.02L2890.18 2766.34C2992.97 2869.14 3159.64 2869.16 3262.45 2766.35C3365.26 2663.54 3369.74 2496.89 3266.95 2394.07L3266.85 2393.98L3266.82 2393.85L3265.86 2390.29L3265.37 2388.48L3266.69 2389.81C3369.49 2492.6 3536.17 2492.63 3638.96 2389.82C3701.51 2327.29 3727.67 2241.12 3715.43 2160.07L3715.37 2159.73L3715.67 2159.56L3736.66 2147.75C4193.79 1690.57 4193.78 949.373 3736.61 492.204C3306.34 61.9502 2567.9 93.1177 2101.32 479.485L2100.95 479.788L2100.63 479.439L2044.73 418.814C2044.72 418.812 2044.72 418.809 2044.72 418.807C1587.53 -38.3711 846.308 -38.3789 389.128 418.814C-68.0039 875.941 -4.2632 1680.97 452.943 2138.19C452.947 2138.2 452.951 2138.2 452.956 2138.21L619.903 2283.62L620.174 2283.86L620.036 2284.19C580.302 2379.7 599.271 2493.86 676.96 2571.56C779.764 2674.37 946.433 2678.83 1049.23 2576.05L1049.32 2575.95L1049.45 2575.92L1053 2574.98L1054.8 2574.5L1053.48 2575.81C950.709 2678.61 950.679 2845.26 1053.47 2948.07C1156.29 3050.88 1322.96 3055.37 1425.77 2952.57L1425.86 2952.48L1425.99 2952.45L1429.53 2951.49L1431.34 2951L1430.01 2952.32C1327.22 3055.12 1327.19 3221.79 1430.01 3324.6L1429.66 3324.95L1430.01 3324.6C1532.81 3427.41 1699.47 3431.88 1802.28 3329.09L1802.37 3328.99L1802.5 3328.96L1806.05 3328.01L1807.85 3327.53L1806.53 3328.85C1703.76 3431.65 1703.72 3598.31 1806.52 3701.11C1909.33 3803.92 2076.01 3808.4 2178.81 3705.61L2440.49 3443.91Z" fill="#FEA82F" stroke="white"/>
<path d="M2480.38 856.61L2029.25 1308.13C1809.95 1530.97 1465.95 1530.97 1253.75 1318.78L2018.95 553.57M2016.84 555.68C2474.22 98.3002 3279.58 34.4803 3736.96 491.85C4194.34 949.23 4194.34 1690.78 3736.96 2148.15M2487.84 861.23L3643.81 2017.21C3746.83 2120.2 3742.33 2287.19 3639.31 2390.17C3536.33 2493.18 3369.33 2493.15 3266.34 2390.16M2488.71 1615.12L3267.3 2393.72C3370.3 2496.74 3365.8 2663.71 3262.8 2766.7C3159.8 2869.71 2992.81 2869.69 2889.83 2766.69L2111.24 1988.08M2890.78 2770.25C2993.79 2873.25 2989.28 3040.25 2886.29 3143.22C2783.29 3246.22 2616.29 3246.2 2513.3 3143.22M558.393 2244.35L452.602 2138.56C-4.77631 1681.18 -68.5898 875.82 388.774 418.46C846.152 -38.9298 1587.7 -38.9198 2045.08 418.46L2077.21 450.77M2179.16 3705.97C2076.16 3808.96 1909.16 3804.46 1806.17 3701.46C1703.17 3598.47 1703.21 3431.49 1806.18 3328.49L2067.87 3066.81C2170.87 2963.81 2337.87 2968.31 2440.84 3071.31C2543.85 3174.31 2543.83 3341.28 2440.84 3444.27L2179.16 3705.97ZM1802.63 3329.44C1699.62 3432.44 1532.64 3427.95 1429.66 3324.95C1326.64 3221.95 1326.67 3054.96 1429.66 2951.97L1691.34 2690.29C1794.36 2587.29 1961.36 2591.79 2064.33 2694.77C2167.33 2797.77 2167.31 2964.76 2064.33 3067.76L1802.63 3329.44ZM1426.12 2952.93C1323.11 3055.93 1156.12 3051.41 1053.12 2948.43C950.13 2845.42 950.16 2678.45 1053.13 2575.46L1314.83 2313.77C1417.83 2210.75 1584.83 2215.26 1687.8 2318.26C1790.82 2421.26 1790.79 2588.25 1687.8 2691.24L1426.12 2952.93ZM1049.58 2576.4C946.58 2679.39 779.594 2674.91 676.606 2571.91C573.608 2468.91 573.627 2301.92 676.615 2198.93L938.3 1937.23C1041.32 1834.24 1208.29 1838.74 1311.29 1941.74C1414.29 2044.73 1414.26 2211.73 1311.28 2314.71L1049.58 2576.4Z" stroke="white" stroke-width="150" stroke-linecap="round"/>
<path d="M5188.28 1710L5110.65 1455.12H4720.27L4642.63 1710H4398L4775.93 634.805H5053.52L5432.91 1710H5188.28ZM5056.45 1264.69L4978.81 1015.66C4973.93 999.062 4967.34 977.822 4959.04 951.943C4951.22 925.576 4943.17 898.965 4934.87 872.109C4927.05 844.766 4920.71 821.084 4915.82 801.064C4910.94 821.084 4904.1 845.986 4895.31 875.771C4887.01 905.068 4878.96 932.9 4871.14 959.268C4863.33 985.635 4857.72 1004.43 4854.3 1015.66L4777.39 1264.69H5056.45ZM6021.78 1710L5763.97 869.912H5757.38C5758.35 889.932 5759.82 920.205 5761.77 960.732C5764.21 1000.77 5766.41 1043.5 5768.36 1088.91C5770.31 1134.32 5771.29 1175.33 5771.29 1211.95V1710H5568.41V639.199H5877.49L6130.91 1458.05H6135.3L6404.1 639.199H6713.19V1710H6501.52V1203.16C6501.52 1169.47 6502 1130.65 6502.98 1086.71C6504.45 1042.76 6506.15 1001.02 6508.11 961.465C6510.06 921.426 6511.53 891.396 6512.5 871.377H6505.91L6229.79 1710H6021.78ZM6983.45 639.199H7316.7C7459.28 639.199 7567.19 659.219 7640.43 699.258C7713.67 739.297 7750.3 809.609 7750.3 910.195C7750.3 950.723 7743.7 987.344 7730.52 1020.06C7717.82 1052.77 7699.27 1079.63 7674.86 1100.62C7650.44 1121.62 7620.66 1135.29 7585.5 1141.64V1148.96C7621.14 1156.29 7653.37 1168.98 7682.18 1187.05C7710.99 1204.63 7733.94 1230.51 7751.03 1264.69C7768.61 1298.38 7777.39 1343.3 7777.39 1399.45C7777.39 1464.39 7761.53 1520.06 7729.79 1566.45C7698.05 1612.83 7652.64 1648.48 7593.56 1673.38C7534.96 1697.79 7465.14 1710 7384.08 1710H6983.45V639.199ZM7210.5 1063.27H7342.34C7408.25 1063.27 7453.91 1053.02 7479.3 1032.51C7504.69 1011.51 7517.39 980.752 7517.39 940.225C7517.39 899.209 7502.25 869.912 7471.97 852.334C7442.19 834.268 7394.83 825.234 7329.89 825.234H7210.5V1063.27ZM7210.5 1243.45V1522.5H7358.45C7426.81 1522.5 7474.42 1509.32 7501.27 1482.95C7528.13 1456.58 7541.55 1421.18 7541.55 1376.75C7541.55 1350.38 7535.7 1327.19 7523.98 1307.17C7512.26 1287.15 7492.48 1271.52 7464.65 1260.29C7437.31 1249.06 7399.47 1243.45 7351.13 1243.45H7210.5ZM8607.96 1710H7991.26V639.199H8607.96V825.234H8218.31V1060.34H8580.86V1246.38H8218.31V1522.5H8607.96V1710ZM8595.51 308.877V324.258C8581.35 337.93 8562.8 354.775 8539.85 374.795C8516.9 394.814 8492.24 415.811 8465.87 437.783C8439.5 459.268 8413.63 480.02 8388.23 500.039C8362.84 519.57 8340.63 535.928 8321.58 549.111H8172.9V529.336C8189.02 510.781 8207.57 488.809 8228.57 463.418C8250.05 437.539 8271.29 410.928 8292.29 383.584C8313.28 356.24 8330.86 331.338 8345.02 308.877H8595.51ZM8832.08 1710V639.199H9059.13V1522.5H9493.46V1710H8832.08ZM10296.9 1710H9680.23V639.199H10296.9V825.234H9907.28V1060.34H10269.8V1246.38H9907.28V1522.5H10296.9V1710ZM10284.5 308.877V324.258C10270.3 337.93 10251.8 354.775 10228.8 374.795C10205.9 394.814 10181.2 415.811 10154.8 437.783C10128.5 459.268 10102.6 480.02 10077.2 500.039C10051.8 519.57 10029.6 535.928 10010.5 549.111H9861.87V529.336C9877.98 510.781 9896.54 488.809 9917.53 463.418C9939.02 437.539 9960.26 410.928 9981.25 383.584C10002.2 356.24 10019.8 331.338 10034 308.877H10284.5ZM5504.69 2773.13C5504.69 2855.65 5494.44 2930.85 5473.93 2998.72C5453.42 3066.1 5422.17 3124.21 5380.18 3173.04C5338.67 3221.87 5285.94 3259.46 5221.97 3285.83C5158.01 3311.71 5082.33 3324.65 4994.92 3324.65C4907.52 3324.65 4831.84 3311.71 4767.87 3285.83C4703.91 3259.46 4650.93 3221.87 4608.94 3173.04C4567.43 3124.21 4536.43 3065.86 4515.92 2997.99C4495.41 2930.12 4485.16 2854.68 4485.16 2771.67C4485.16 2660.83 4503.22 2564.39 4539.36 2482.36C4575.98 2399.84 4632.13 2335.88 4707.81 2290.47C4783.5 2245.06 4879.69 2222.35 4996.39 2222.35C5112.6 2222.35 5208.06 2245.06 5282.77 2290.47C5357.96 2335.88 5413.63 2399.84 5449.76 2482.36C5486.38 2564.88 5504.69 2661.81 5504.69 2773.13ZM4723.2 2773.13C4723.2 2847.84 4732.47 2912.29 4751.03 2966.49C4770.07 3020.21 4799.61 3061.71 4839.65 3091.01C4879.69 3119.81 4931.45 3134.22 4994.92 3134.22C5059.38 3134.22 5111.62 3119.81 5151.66 3091.01C5191.7 3061.71 5220.75 3020.21 5238.82 2966.49C5257.38 2912.29 5266.65 2847.84 5266.65 2773.13C5266.65 2660.83 5245.66 2572.45 5203.66 2508C5161.67 2443.54 5092.58 2411.32 4996.39 2411.32C4932.42 2411.32 4880.18 2425.97 4839.65 2455.26C4799.61 2484.07 4770.07 2525.58 4751.03 2579.78C4732.47 2633.49 4723.2 2697.94 4723.2 2773.13ZM6676.56 3310H6387.99L5922.17 2499.94H5915.58C5917.53 2533.63 5919.24 2567.57 5920.71 2601.75C5922.17 2635.93 5923.64 2670.11 5925.1 2704.29C5926.56 2737.98 5928.03 2771.91 5929.49 2806.09V3310H5726.61V2239.2H6012.99L6478.08 3041.2H6483.21C6482.23 3008 6481.01 2975.04 6479.54 2942.32C6478.08 2909.61 6476.61 2876.89 6475.15 2844.18C6474.17 2811.46 6473.2 2778.75 6472.22 2746.04V2239.2H6676.56V3310ZM7953.18 3310H7336.48V2239.2H7953.18V2425.23H7563.53V2660.34H7926.08V2846.38H7563.53V3122.5H7953.18V3310ZM8809.38 3012.64C8809.38 3076.11 8794 3131.29 8763.23 3178.16C8732.47 3225.04 8687.55 3261.17 8628.47 3286.56C8569.88 3311.95 8498.59 3324.65 8414.6 3324.65C8377.49 3324.65 8341.12 3322.21 8305.47 3317.32C8270.31 3312.44 8236.38 3305.36 8203.66 3296.08C8171.44 3286.32 8140.68 3274.36 8111.38 3260.2V3049.26C8162.16 3071.72 8214.89 3091.98 8269.58 3110.05C8324.27 3128.12 8378.47 3137.15 8432.18 3137.15C8469.29 3137.15 8499.07 3132.27 8521.54 3122.5C8544.48 3112.73 8561.09 3099.31 8571.34 3082.22C8581.59 3065.13 8586.72 3045.6 8586.72 3023.62C8586.72 2996.77 8577.69 2973.82 8559.62 2954.78C8541.55 2935.73 8516.65 2917.91 8484.91 2901.31C8453.66 2884.71 8418.26 2866.88 8378.71 2847.84C8353.81 2836.12 8326.71 2821.96 8297.41 2805.36C8268.12 2788.27 8240.29 2767.52 8213.92 2743.11C8187.55 2718.69 8165.82 2689.15 8148.73 2654.48C8132.13 2619.33 8123.83 2577.33 8123.83 2528.51C8123.83 2464.54 8138.48 2409.85 8167.78 2364.44C8197.07 2319.03 8238.82 2284.37 8293.02 2260.44C8347.71 2236.03 8412.16 2223.82 8486.38 2223.82C8542.04 2223.82 8595.02 2230.41 8645.31 2243.59C8696.1 2256.29 8749.07 2274.84 8804.25 2299.26L8731.01 2475.77C8681.69 2455.75 8637.5 2440.37 8598.44 2429.63C8559.38 2418.4 8519.58 2412.78 8479.05 2412.78C8450.73 2412.78 8426.56 2417.42 8406.55 2426.7C8386.53 2435.49 8371.39 2448.18 8361.14 2464.79C8350.88 2480.9 8345.75 2499.7 8345.75 2521.18C8345.75 2546.57 8353.08 2568.06 8367.73 2585.63C8382.86 2602.72 8405.32 2619.33 8435.11 2635.44C8465.38 2651.55 8502.98 2670.35 8547.9 2691.84C8602.59 2717.71 8649.22 2744.81 8687.8 2773.13C8726.86 2800.97 8756.89 2833.93 8777.88 2872.01C8798.88 2909.61 8809.38 2956.48 8809.38 3012.64ZM9416.55 3310H9189.5V2428.16H8898.73V2239.2H9707.33V2428.16H9416.55V3310ZM10878.5 3310H10261.8V2239.2H10878.5V2425.23H10488.8V2660.34H10851.4V2846.38H10488.8V3122.5H10878.5V3310ZM12052.5 3310H11764L11298.1 2499.94H11291.6C11293.5 2533.63 11295.2 2567.57 11296.7 2601.75C11298.1 2635.93 11299.6 2670.11 11301.1 2704.29C11302.5 2737.98 11304 2771.91 11305.5 2806.09V3310H11102.6V2239.2H11389L11854.1 3041.2H11859.2C11858.2 3008 11857 2975.04 11855.5 2942.32C11854.1 2909.61 11852.6 2876.89 11851.1 2844.18C11850.1 2811.46 11849.2 2778.75 11848.2 2746.04V2239.2H12052.5V3310ZM12954.9 3012.64C12954.9 3076.11 12939.5 3131.29 12908.7 3178.16C12878 3225.04 12833.1 3261.17 12774 3286.56C12715.4 3311.95 12644.1 3324.65 12560.1 3324.65C12523 3324.65 12486.6 3322.21 12451 3317.32C12415.8 3312.44 12381.9 3305.36 12349.2 3296.08C12316.9 3286.32 12286.2 3274.36 12256.9 3260.2V3049.26C12307.7 3071.72 12360.4 3091.98 12415.1 3110.05C12469.8 3128.12 12524 3137.15 12577.7 3137.15C12614.8 3137.15 12644.6 3132.27 12667 3122.5C12690 3112.73 12706.6 3099.31 12716.8 3082.22C12727.1 3065.13 12732.2 3045.6 12732.2 3023.62C12732.2 2996.77 12723.2 2973.82 12705.1 2954.78C12687.1 2935.73 12662.2 2917.91 12630.4 2901.31C12599.2 2884.71 12563.8 2866.88 12524.2 2847.84C12499.3 2836.12 12472.2 2821.96 12442.9 2805.36C12413.6 2788.27 12385.8 2767.52 12359.4 2743.11C12333.1 2718.69 12311.3 2689.15 12294.2 2654.48C12277.6 2619.33 12269.3 2577.33 12269.3 2528.51C12269.3 2464.54 12284 2409.85 12313.3 2364.44C12342.6 2319.03 12384.3 2284.37 12438.5 2260.44C12493.2 2236.03 12557.7 2223.82 12631.9 2223.82C12687.6 2223.82 12740.5 2230.41 12790.8 2243.59C12841.6 2256.29 12894.6 2274.84 12949.8 2299.26L12876.5 2475.77C12827.2 2455.75 12783 2440.37 12743.9 2429.63C12704.9 2418.4 12665.1 2412.78 12624.6 2412.78C12596.2 2412.78 12572.1 2417.42 12552.1 2426.7C12532 2435.49 12516.9 2448.18 12506.6 2464.79C12496.4 2480.9 12491.3 2499.7 12491.3 2521.18C12491.3 2546.57 12498.6 2568.06 12513.2 2585.63C12528.4 2602.72 12550.8 2619.33 12580.6 2635.44C12610.9 2651.55 12648.5 2670.35 12693.4 2691.84C12748.1 2717.71 12794.7 2744.81 12833.3 2773.13C12872.4 2800.97 12902.4 2833.93 12923.4 2872.01C12944.4 2909.61 12954.9 2956.48 12954.9 3012.64ZM13765.7 3310H13149V2239.2H13765.7V2425.23H13376V2660.34H13738.6V2846.38H13376V3122.5H13765.7V3310ZM14443.2 3310L14185.4 2469.91H14178.8C14179.7 2489.93 14181.2 2520.21 14183.2 2560.73C14185.6 2600.77 14187.8 2643.5 14189.7 2688.91C14191.7 2734.32 14192.7 2775.33 14192.7 2811.95V3310H13989.8V2239.2H14298.9L14552.3 3058.05H14556.7L14825.5 2239.2H15134.6V3310H14922.9V2803.16C14922.9 2769.47 14923.4 2730.65 14924.4 2686.71C14925.8 2642.76 14927.5 2601.02 14929.5 2561.46C14931.4 2521.43 14932.9 2491.4 14933.9 2471.38H14927.3L14651.2 3310H14443.2ZM15404.8 2239.2H15738.1C15880.7 2239.2 15988.6 2259.22 16061.8 2299.26C16135.1 2339.3 16171.7 2409.61 16171.7 2510.2C16171.7 2550.72 16165.1 2587.34 16151.9 2620.06C16139.2 2652.77 16120.7 2679.63 16096.2 2700.62C16071.8 2721.62 16042 2735.29 16006.9 2741.64V2748.96C16042.5 2756.29 16074.8 2768.98 16103.6 2787.05C16132.4 2804.63 16155.3 2830.51 16172.4 2864.69C16190 2898.38 16198.8 2943.3 16198.8 2999.45C16198.8 3064.39 16182.9 3120.06 16151.2 3166.45C16119.4 3212.83 16074 3248.48 16014.9 3273.38C15956.3 3297.79 15886.5 3310 15805.5 3310H15404.8V2239.2ZM15631.9 2663.27H15763.7C15829.6 2663.27 15875.3 2653.02 15900.7 2632.51C15926.1 2611.51 15938.8 2580.75 15938.8 2540.22C15938.8 2499.21 15923.6 2469.91 15893.4 2452.33C15863.6 2434.27 15816.2 2425.23 15751.3 2425.23H15631.9V2663.27ZM15631.9 2843.45V3122.5H15779.8C15848.2 3122.5 15895.8 3109.32 15922.7 3082.95C15949.5 3056.58 15962.9 3021.18 15962.9 2976.75C15962.9 2950.38 15957.1 2927.19 15945.4 2907.17C15933.6 2887.15 15913.9 2871.52 15886 2860.29C15858.7 2849.06 15820.9 2843.45 15772.5 2843.45H15631.9ZM16412.6 3310V2239.2H16639.7V3122.5H17074V3310H16412.6ZM17877.5 3310H17260.8V2239.2H17877.5V2425.23H17487.8V2660.34H17850.4V2846.38H17487.8V3122.5H17877.5V3310Z" fill="white"/>
</svg>
