<svg width="18503" height="3857" viewBox="0 0 18503 3857" fill="none" xmlns="http://www.w3.org/2000/svg">
<path d="M2440.49 3443.91C2543.28 3341.12 2543.3 3174.47 2440.5 3071.67C2440.49 3071.67 2440.49 3071.67 2440.49 3071.66L2440.84 3071.31L2441.19 3070.95L2513.65 3142.87L2513.3 3143.22L2513.65 3142.87C2616.45 3245.65 2783.13 3245.67 2885.94 3142.87C2988.74 3040.08 2993.23 2873.4 2890.43 2770.6L2890.33 2770.51L2890.3 2770.38L2889.35 2766.82L2888.87 2765.02L2890.18 2766.34C2992.97 2869.14 3159.64 2869.16 3262.45 2766.35C3365.26 2663.54 3369.74 2496.89 3266.95 2394.07L3266.85 2393.98L3266.82 2393.85L3265.86 2390.29L3265.37 2388.48L3266.69 2389.81C3369.49 2492.6 3536.17 2492.63 3638.96 2389.82C3701.51 2327.29 3727.67 2241.12 3715.43 2160.07L3715.37 2159.73L3715.67 2159.56L3736.66 2147.75C4193.79 1690.57 4193.78 949.373 3736.61 492.204C3306.34 61.9502 2567.9 93.1177 2101.32 479.485L2100.95 479.788L2100.63 479.439L2044.73 418.814C2044.72 418.812 2044.72 418.809 2044.72 418.807C1587.53 -38.3711 846.308 -38.3789 389.128 418.814C-68.0039 875.941 -4.2632 1680.97 452.943 2138.19C452.947 2138.2 452.951 2138.2 452.956 2138.21L619.903 2283.62L620.174 2283.86L620.036 2284.19C580.302 2379.7 599.271 2493.86 676.96 2571.56C779.764 2674.37 946.433 2678.83 1049.23 2576.05L1049.32 2575.95L1049.45 2575.92L1053 2574.98L1054.8 2574.5L1053.48 2575.81C950.709 2678.61 950.679 2845.26 1053.47 2948.07C1156.29 3050.88 1322.96 3055.37 1425.77 2952.57L1425.86 2952.48L1425.99 2952.45L1429.53 2951.49L1431.34 2951L1430.01 2952.32C1327.22 3055.12 1327.19 3221.79 1430.01 3324.6L1429.66 3324.95L1430.01 3324.6C1532.81 3427.41 1699.47 3431.88 1802.28 3329.09L1802.37 3328.99L1802.5 3328.96L1806.05 3328.01L1807.85 3327.53L1806.53 3328.85C1703.76 3431.65 1703.72 3598.31 1806.52 3701.11C1909.33 3803.92 2076.01 3808.4 2178.81 3705.61L2440.49 3443.91Z" fill="#FEA82F" stroke="black"/>
<path d="M2480.38 856.61L2029.25 1308.13C1809.95 1530.97 1465.95 1530.97 1253.75 1318.78L2018.95 553.57M2016.84 555.68C2474.22 98.3002 3279.58 34.4803 3736.96 491.85C4194.34 949.23 4194.34 1690.78 3736.96 2148.15M2487.84 861.23L3643.81 2017.21C3746.83 2120.2 3742.33 2287.19 3639.31 2390.17C3536.33 2493.18 3369.33 2493.15 3266.34 2390.16M2488.71 1615.12L3267.3 2393.72C3370.3 2496.74 3365.8 2663.71 3262.8 2766.7C3159.8 2869.71 2992.81 2869.69 2889.83 2766.69L2111.24 1988.08M2890.78 2770.25C2993.79 2873.25 2989.28 3040.25 2886.29 3143.22C2783.29 3246.22 2616.29 3246.2 2513.3 3143.22M558.393 2244.35L452.602 2138.56C-4.77631 1681.18 -68.5898 875.82 388.774 418.46C846.152 -38.9298 1587.7 -38.9198 2045.08 418.46L2077.21 450.77M2179.16 3705.97C2076.16 3808.96 1909.16 3804.46 1806.17 3701.46C1703.17 3598.47 1703.21 3431.49 1806.18 3328.49L2067.87 3066.81C2170.87 2963.81 2337.87 2968.31 2440.84 3071.31C2543.85 3174.31 2543.83 3341.28 2440.84 3444.27L2179.16 3705.97ZM1802.63 3329.44C1699.62 3432.44 1532.64 3427.95 1429.66 3324.95C1326.64 3221.95 1326.67 3054.96 1429.66 2951.97L1691.34 2690.29C1794.36 2587.29 1961.36 2591.79 2064.33 2694.77C2167.33 2797.77 2167.31 2964.76 2064.33 3067.76L1802.63 3329.44ZM1426.12 2952.93C1323.11 3055.93 1156.12 3051.41 1053.12 2948.43C950.13 2845.42 950.16 2678.45 1053.13 2575.46L1314.83 2313.77C1417.83 2210.75 1584.83 2215.26 1687.8 2318.26C1790.82 2421.26 1790.79 2588.25 1687.8 2691.24L1426.12 2952.93ZM1049.58 2576.4C946.58 2679.39 779.594 2674.91 676.606 2571.91C573.608 2468.91 573.627 2301.92 676.615 2198.93L938.3 1937.23C1041.32 1834.24 1208.29 1838.74 1311.29 1941.74C1414.29 2044.73 1414.26 2211.73 1311.28 2314.71L1049.58 2576.4Z" stroke="black" stroke-width="150" stroke-linecap="round"/>
<path d="M5188.28 1644L5110.65 1389.12H4720.27L4642.63 1644H4398L4775.93 568.805H5053.52L5432.91 1644H5188.28ZM5056.45 1198.69L4978.81 949.664C4973.93 933.062 4967.34 911.822 4959.04 885.943C4951.22 859.576 4943.17 832.965 4934.87 806.109C4927.05 778.766 4920.71 755.084 4915.82 735.064C4910.94 755.084 4904.1 779.986 4895.31 809.771C4887.01 839.068 4878.96 866.9 4871.14 893.268C4863.33 919.635 4857.72 938.434 4854.3 949.664L4777.39 1198.69H5056.45ZM6021.78 1644L5763.97 803.912H5757.38C5758.35 823.932 5759.82 854.205 5761.77 894.732C5764.21 934.771 5766.41 977.496 5768.36 1022.91C5770.31 1068.32 5771.29 1109.33 5771.29 1145.95V1644H5568.41V573.199H5877.49L6130.91 1392.05H6135.3L6404.1 573.199H6713.19V1644H6501.52V1137.16C6501.52 1103.47 6502 1064.65 6502.98 1020.71C6504.45 976.764 6506.15 935.016 6508.11 895.465C6510.06 855.426 6511.53 825.396 6512.5 805.377H6505.91L6229.79 1644H6021.78ZM6983.45 573.199H7316.7C7459.28 573.199 7567.19 593.219 7640.43 633.258C7713.67 673.297 7750.3 743.609 7750.3 844.195C7750.3 884.723 7743.7 921.344 7730.52 954.059C7717.82 986.773 7699.27 1013.63 7674.86 1034.62C7650.44 1055.62 7620.66 1069.29 7585.5 1075.64V1082.96C7621.14 1090.29 7653.37 1102.98 7682.18 1121.05C7710.99 1138.63 7733.94 1164.51 7751.03 1198.69C7768.61 1232.38 7777.39 1277.3 7777.39 1333.45C7777.39 1398.39 7761.53 1454.06 7729.79 1500.45C7698.05 1546.83 7652.64 1582.48 7593.56 1607.38C7534.96 1631.79 7465.14 1644 7384.08 1644H6983.45V573.199ZM7210.5 997.271H7342.34C7408.25 997.271 7453.91 987.018 7479.3 966.51C7504.69 945.514 7517.39 914.752 7517.39 874.225C7517.39 833.209 7502.25 803.912 7471.97 786.334C7442.19 768.268 7394.83 759.234 7329.89 759.234H7210.5V997.271ZM7210.5 1177.45V1456.5H7358.45C7426.81 1456.5 7474.42 1443.32 7501.27 1416.95C7528.13 1390.58 7541.55 1355.18 7541.55 1310.75C7541.55 1284.38 7535.7 1261.19 7523.98 1241.17C7512.26 1221.15 7492.48 1205.52 7464.65 1194.29C7437.31 1183.06 7399.47 1177.45 7351.13 1177.45H7210.5ZM8607.96 1644H7991.26V573.199H8607.96V759.234H8218.31V994.342H8580.86V1180.38H8218.31V1456.5H8607.96V1644ZM8595.51 242.877V258.258C8581.35 271.93 8562.8 288.775 8539.85 308.795C8516.9 328.814 8492.24 349.811 8465.87 371.783C8439.5 393.268 8413.63 414.02 8388.23 434.039C8362.84 453.57 8340.63 469.928 8321.58 483.111H8172.9V463.336C8189.02 444.781 8207.57 422.809 8228.57 397.418C8250.05 371.539 8271.29 344.928 8292.29 317.584C8313.28 290.24 8330.86 265.338 8345.02 242.877H8595.51ZM8832.08 1644V573.199H9059.13V1456.5H9493.46V1644H8832.08ZM10296.9 1644H9680.23V573.199H10296.9V759.234H9907.28V994.342H10269.8V1180.38H9907.28V1456.5H10296.9V1644ZM10284.5 242.877V258.258C10270.3 271.93 10251.8 288.775 10228.8 308.795C10205.9 328.814 10181.2 349.811 10154.8 371.783C10128.5 393.268 10102.6 414.02 10077.2 434.039C10051.8 453.57 10029.6 469.928 10010.5 483.111H9861.87V463.336C9877.98 444.781 9896.54 422.809 9917.53 397.418C9939.02 371.539 9960.26 344.928 9981.25 317.584C10002.2 290.24 10019.8 265.338 10034 242.877H10284.5ZM5504.69 2707.13C5504.69 2789.65 5494.44 2864.85 5473.93 2932.72C5453.42 3000.1 5422.17 3058.21 5380.18 3107.04C5338.67 3155.87 5285.94 3193.46 5221.97 3219.83C5158.01 3245.71 5082.33 3258.65 4994.92 3258.65C4907.52 3258.65 4831.84 3245.71 4767.87 3219.83C4703.91 3193.46 4650.93 3155.87 4608.94 3107.04C4567.43 3058.21 4536.43 2999.86 4515.92 2931.99C4495.41 2864.12 4485.16 2788.68 4485.16 2705.67C4485.16 2594.83 4503.22 2498.39 4539.36 2416.36C4575.98 2333.84 4632.13 2269.88 4707.81 2224.47C4783.5 2179.06 4879.69 2156.35 4996.39 2156.35C5112.6 2156.35 5208.06 2179.06 5282.77 2224.47C5357.96 2269.88 5413.63 2333.84 5449.76 2416.36C5486.38 2498.88 5504.69 2595.81 5504.69 2707.13ZM4723.2 2707.13C4723.2 2781.84 4732.47 2846.29 4751.03 2900.49C4770.07 2954.21 4799.61 2995.71 4839.65 3025.01C4879.69 3053.81 4931.45 3068.22 4994.92 3068.22C5059.38 3068.22 5111.62 3053.81 5151.66 3025.01C5191.7 2995.71 5220.75 2954.21 5238.82 2900.49C5257.38 2846.29 5266.65 2781.84 5266.65 2707.13C5266.65 2594.83 5245.66 2506.45 5203.66 2442C5161.67 2377.54 5092.58 2345.32 4996.39 2345.32C4932.42 2345.32 4880.18 2359.97 4839.65 2389.26C4799.61 2418.07 4770.07 2459.58 4751.03 2513.78C4732.47 2567.49 4723.2 2631.94 4723.2 2707.13ZM6676.56 3244H6387.99L5922.17 2433.94H5915.58C5917.53 2467.63 5919.24 2501.57 5920.71 2535.75C5922.17 2569.93 5923.64 2604.11 5925.1 2638.29C5926.56 2671.98 5928.03 2705.91 5929.49 2740.09V3244H5726.61V2173.2H6012.99L6478.08 2975.2H6483.21C6482.23 2942 6481.01 2909.04 6479.54 2876.32C6478.08 2843.61 6476.61 2810.89 6475.15 2778.18C6474.17 2745.46 6473.2 2712.75 6472.22 2680.04V2173.2H6676.56V3244ZM7953.18 3244H7336.48V2173.2H7953.18V2359.23H7563.53V2594.34H7926.08V2780.38H7563.53V3056.5H7953.18V3244ZM8809.38 2946.64C8809.38 3010.11 8794 3065.29 8763.23 3112.16C8732.47 3159.04 8687.55 3195.17 8628.47 3220.56C8569.88 3245.95 8498.59 3258.65 8414.6 3258.65C8377.49 3258.65 8341.12 3256.21 8305.47 3251.32C8270.31 3246.44 8236.38 3239.36 8203.66 3230.08C8171.44 3220.32 8140.68 3208.36 8111.38 3194.2V2983.26C8162.16 3005.72 8214.89 3025.98 8269.58 3044.05C8324.27 3062.12 8378.47 3071.15 8432.18 3071.15C8469.29 3071.15 8499.07 3066.27 8521.54 3056.5C8544.48 3046.73 8561.09 3033.31 8571.34 3016.22C8581.59 2999.13 8586.72 2979.6 8586.72 2957.62C8586.72 2930.77 8577.69 2907.82 8559.62 2888.78C8541.55 2869.73 8516.65 2851.91 8484.91 2835.31C8453.66 2818.71 8418.26 2800.88 8378.71 2781.84C8353.81 2770.12 8326.71 2755.96 8297.41 2739.36C8268.12 2722.27 8240.29 2701.52 8213.92 2677.11C8187.55 2652.69 8165.82 2623.15 8148.73 2588.48C8132.13 2553.33 8123.83 2511.33 8123.83 2462.51C8123.83 2398.54 8138.48 2343.85 8167.78 2298.44C8197.07 2253.03 8238.82 2218.37 8293.02 2194.44C8347.71 2170.03 8412.16 2157.82 8486.38 2157.82C8542.04 2157.82 8595.02 2164.41 8645.31 2177.59C8696.1 2190.29 8749.07 2208.84 8804.25 2233.26L8731.01 2409.77C8681.69 2389.75 8637.5 2374.37 8598.44 2363.63C8559.38 2352.4 8519.58 2346.78 8479.05 2346.78C8450.73 2346.78 8426.56 2351.42 8406.55 2360.7C8386.53 2369.49 8371.39 2382.18 8361.14 2398.79C8350.88 2414.9 8345.75 2433.7 8345.75 2455.18C8345.75 2480.57 8353.08 2502.06 8367.73 2519.63C8382.86 2536.72 8405.32 2553.33 8435.11 2569.44C8465.38 2585.55 8502.98 2604.35 8547.9 2625.84C8602.59 2651.71 8649.22 2678.81 8687.8 2707.13C8726.86 2734.97 8756.89 2767.93 8777.88 2806.01C8798.88 2843.61 8809.38 2890.48 8809.38 2946.64ZM9416.55 3244H9189.5V2362.16H8898.73V2173.2H9707.33V2362.16H9416.55V3244ZM10878.5 3244H10261.8V2173.2H10878.5V2359.23H10488.8V2594.34H10851.4V2780.38H10488.8V3056.5H10878.5V3244ZM12052.5 3244H11764L11298.1 2433.94H11291.6C11293.5 2467.63 11295.2 2501.57 11296.7 2535.75C11298.1 2569.93 11299.6 2604.11 11301.1 2638.29C11302.5 2671.98 11304 2705.91 11305.5 2740.09V3244H11102.6V2173.2H11389L11854.1 2975.2H11859.2C11858.2 2942 11857 2909.04 11855.5 2876.32C11854.1 2843.61 11852.6 2810.89 11851.1 2778.18C11850.1 2745.46 11849.2 2712.75 11848.2 2680.04V2173.2H12052.5V3244ZM12954.9 2946.64C12954.9 3010.11 12939.5 3065.29 12908.7 3112.16C12878 3159.04 12833.1 3195.17 12774 3220.56C12715.4 3245.95 12644.1 3258.65 12560.1 3258.65C12523 3258.65 12486.6 3256.21 12451 3251.32C12415.8 3246.44 12381.9 3239.36 12349.2 3230.08C12316.9 3220.32 12286.2 3208.36 12256.9 3194.2V2983.26C12307.7 3005.72 12360.4 3025.98 12415.1 3044.05C12469.8 3062.12 12524 3071.15 12577.7 3071.15C12614.8 3071.15 12644.6 3066.27 12667 3056.5C12690 3046.73 12706.6 3033.31 12716.8 3016.22C12727.1 2999.13 12732.2 2979.6 12732.2 2957.62C12732.2 2930.77 12723.2 2907.82 12705.1 2888.78C12687.1 2869.73 12662.2 2851.91 12630.4 2835.31C12599.2 2818.71 12563.8 2800.88 12524.2 2781.84C12499.3 2770.12 12472.2 2755.96 12442.9 2739.36C12413.6 2722.27 12385.8 2701.52 12359.4 2677.11C12333.1 2652.69 12311.3 2623.15 12294.2 2588.48C12277.6 2553.33 12269.3 2511.33 12269.3 2462.51C12269.3 2398.54 12284 2343.85 12313.3 2298.44C12342.6 2253.03 12384.3 2218.37 12438.5 2194.44C12493.2 2170.03 12557.7 2157.82 12631.9 2157.82C12687.6 2157.82 12740.5 2164.41 12790.8 2177.59C12841.6 2190.29 12894.6 2208.84 12949.8 2233.26L12876.5 2409.77C12827.2 2389.75 12783 2374.37 12743.9 2363.63C12704.9 2352.4 12665.1 2346.78 12624.6 2346.78C12596.2 2346.78 12572.1 2351.42 12552.1 2360.7C12532 2369.49 12516.9 2382.18 12506.6 2398.79C12496.4 2414.9 12491.3 2433.7 12491.3 2455.18C12491.3 2480.57 12498.6 2502.06 12513.2 2519.63C12528.4 2536.72 12550.8 2553.33 12580.6 2569.44C12610.9 2585.55 12648.5 2604.35 12693.4 2625.84C12748.1 2651.71 12794.7 2678.81 12833.3 2707.13C12872.4 2734.97 12902.4 2767.93 12923.4 2806.01C12944.4 2843.61 12954.9 2890.48 12954.9 2946.64ZM13765.7 3244H13149V2173.2H13765.7V2359.23H13376V2594.34H13738.6V2780.38H13376V3056.5H13765.7V3244ZM14443.2 3244L14185.4 2403.91H14178.8C14179.7 2423.93 14181.2 2454.21 14183.2 2494.73C14185.6 2534.77 14187.8 2577.5 14189.7 2622.91C14191.7 2668.32 14192.7 2709.33 14192.7 2745.95V3244H13989.8V2173.2H14298.9L14552.3 2992.05H14556.7L14825.5 2173.2H15134.6V3244H14922.9V2737.16C14922.9 2703.47 14923.4 2664.65 14924.4 2620.71C14925.8 2576.76 14927.5 2535.02 14929.5 2495.46C14931.4 2455.43 14932.9 2425.4 14933.9 2405.38H14927.3L14651.2 3244H14443.2ZM15404.8 2173.2H15738.1C15880.7 2173.2 15988.6 2193.22 16061.8 2233.26C16135.1 2273.3 16171.7 2343.61 16171.7 2444.2C16171.7 2484.72 16165.1 2521.34 16151.9 2554.06C16139.2 2586.77 16120.7 2613.63 16096.2 2634.62C16071.8 2655.62 16042 2669.29 16006.9 2675.64V2682.96C16042.5 2690.29 16074.8 2702.98 16103.6 2721.05C16132.4 2738.63 16155.3 2764.51 16172.4 2798.69C16190 2832.38 16198.8 2877.3 16198.8 2933.45C16198.8 2998.39 16182.9 3054.06 16151.2 3100.45C16119.4 3146.83 16074 3182.48 16014.9 3207.38C15956.3 3231.79 15886.5 3244 15805.5 3244H15404.8V2173.2ZM15631.9 2597.27H15763.7C15829.6 2597.27 15875.3 2587.02 15900.7 2566.51C15926.1 2545.51 15938.8 2514.75 15938.8 2474.22C15938.8 2433.21 15923.6 2403.91 15893.4 2386.33C15863.6 2368.27 15816.2 2359.23 15751.3 2359.23H15631.9V2597.27ZM15631.9 2777.45V3056.5H15779.8C15848.2 3056.5 15895.8 3043.32 15922.7 3016.95C15949.5 2990.58 15962.9 2955.18 15962.9 2910.75C15962.9 2884.38 15957.1 2861.19 15945.4 2841.17C15933.6 2821.15 15913.9 2805.52 15886 2794.29C15858.7 2783.06 15820.9 2777.45 15772.5 2777.45H15631.9ZM16412.6 3244V2173.2H16639.7V3056.5H17074V3244H16412.6ZM17877.5 3244H17260.8V2173.2H17877.5V2359.23H17487.8V2594.34H17850.4V2780.38H17487.8V3056.5H17877.5V3244Z" fill="black"/>
</svg>
