<svg version="1.1" id="Layer_1" xmlns="http://www.w3.org/2000/svg" xmlns:xlink="http://www.w3.org/1999/xlink" x="0px" y="0px"
	 width="100%" viewBox="0 0 560 200" enable-background="new 0 0 560 200" xml:space="preserve">
<path fill="#FEFEFE" opacity="1.000000" stroke="none" 
	d="
M428.000000,201.000000 
	C285.333344,201.000000 143.166672,201.000000 1.000000,201.000000 
	C1.000000,134.333328 1.000000,67.666664 1.000000,1.000000 
	C187.666672,1.000000 374.333344,1.000000 561.000000,1.000000 
	C561.000000,67.666664 561.000000,134.333328 561.000000,201.000000 
	C516.833313,201.000000 472.666656,201.000000 428.000000,201.000000 
M135.248154,97.671387 
	C143.154877,81.400009 142.355606,65.047943 135.048157,48.483345 
	C137.993652,47.775749 140.357071,47.207985 142.790375,46.623432 
	C142.790375,37.492596 142.790375,28.438774 142.790375,19.064861 
	C132.868195,19.084490 123.946266,21.617441 115.058472,26.508001 
	C114.683807,26.590443 114.309135,26.672886 113.379356,26.237955 
	C88.926506,13.128043 60.768818,18.485800 43.981083,39.442837 
	C27.645447,59.835499 28.040335,89.165726 44.918446,109.066589 
	C62.161285,129.397522 90.637100,134.131699 114.558815,120.638718 
	C114.558815,120.638718 114.891632,120.592064 115.597267,120.902260 
	C123.950783,125.619240 132.794937,128.432938 142.780487,128.173218 
	C142.780487,118.806946 142.780487,109.771919 142.780487,100.713593 
	C139.995331,100.044037 137.441818,99.430176 134.918762,98.559891 
	C134.918762,98.559891 134.820160,98.321220 135.248154,97.671387 
M142.499985,151.799728 
	C271.210114,151.799728 399.920227,151.799728 528.630310,151.799728 
	C528.628601,151.359070 528.626892,150.918411 528.625244,150.477753 
	C363.223663,150.477753 197.822144,150.477753 32.420593,150.477753 
	C32.418713,150.918335 32.416828,151.358932 32.414944,151.799515 
	C68.776619,151.799515 105.138298,151.799515 142.499985,151.799728 
M302.464264,117.001030 
	C303.373596,115.820808 304.425537,114.723572 305.168854,113.446686 
	C309.487183,106.028267 308.220032,95.229591 302.470978,89.842598 
	C297.344421,85.038925 291.135162,85.058319 283.510742,89.828224 
	C282.314148,88.691048 281.143982,87.578979 279.055969,85.594620 
	C278.369598,87.858017 277.476013,89.330101 277.594208,90.715904 
	C277.855957,93.785172 279.065216,96.804428 279.111572,99.855865 
	C279.297882,112.131821 279.188660,124.412247 279.188660,136.742035 
	C281.289886,136.742035 282.865021,136.742035 284.910034,136.742035 
	C284.910034,131.388870 284.910034,126.305565 284.910034,122.645981 
	C291.138275,120.762329 296.527283,119.132500 302.464264,117.001030 
M328.188293,28.452425 
	C326.993713,29.346737 325.676910,30.117182 324.624542,31.155615 
	C318.204834,37.490295 317.633026,50.088909 323.367554,57.424324 
	C328.154236,63.547272 335.968170,64.315094 343.862457,59.438202 
	C348.456146,63.329025 352.988831,64.741730 356.253448,58.117691 
	C353.821320,57.438526 351.529663,56.798584 348.851074,56.050591 
	C348.851074,46.730560 348.851074,37.119267 348.851074,26.350965 
	C341.885834,26.958401 335.375885,27.526127 328.188293,28.452425 
M445.787567,40.764984 
	C446.411438,33.739254 444.822571,30.323538 439.807983,27.910347 
	C434.420380,25.317657 427.672913,26.258991 423.698212,30.556042 
	C418.460571,36.218540 417.061401,43.108154 418.615295,50.491203 
	C420.465515,59.282185 427.484253,64.115044 436.300659,62.547417 
	C439.652893,61.951363 442.819336,60.285622 446.046753,59.045658 
	C446.424866,58.900379 446.651550,58.360924 447.070831,57.857117 
	C446.233704,56.586857 445.438202,55.379742 444.671875,54.216919 
	C431.735779,59.380695 425.504333,57.721989 424.828278,49.096569 
	C439.981354,48.323383 441.638062,47.714157 445.787567,40.764984 
M190.830978,29.519257 
	C189.967575,29.029491 189.140656,28.455469 188.235016,28.063280 
	C180.911774,24.891964 172.755936,26.661179 167.840973,32.451618 
	C162.698380,38.510223 162.137344,48.502346 166.561340,55.241993 
	C170.734741,61.599842 178.601685,64.321396 186.292709,61.899696 
	C192.528030,59.936363 196.472305,55.527832 197.692154,49.241169 
	C199.129852,41.831749 197.723953,35.021267 190.830978,29.519257 
M386.210999,29.272591 
	C379.263397,24.356098 372.832428,26.377705 366.917938,30.894520 
	C365.512421,29.302441 364.335938,27.969810 362.952545,26.402815 
	C361.570465,27.632839 360.504028,28.581949 359.760132,29.244026 
	C364.406250,40.063469 360.612610,51.249012 362.567993,62.101692 
	C364.381744,61.968185 365.958618,61.852119 367.807434,61.716034 
	C367.807434,54.379684 367.741180,47.413612 367.830658,40.449535 
	C367.890656,35.779999 372.439911,31.907232 377.580566,31.941900 
	C382.227081,31.973238 383.929047,34.068958 383.980774,39.975521 
	C384.027374,45.298416 383.955475,50.622490 384.018738,55.945053 
	C384.062012,59.587864 386.068726,62.324223 389.485840,62.613342 
	C391.897400,62.817387 394.465790,61.167377 396.964142,60.345123 
	C396.854126,59.678085 396.744080,59.011044 396.634033,58.344006 
	C394.444733,57.657558 392.255402,56.971115 389.577332,56.131435 
	C389.577332,50.872555 389.905792,45.218468 389.453461,39.627548 
	C389.184418,36.301899 387.687103,33.075619 386.210999,29.272591 
M383.611084,86.864265 
	C376.685425,88.664734 372.964966,93.369118 371.982849,100.227921 
	C370.939240,107.515923 371.978516,114.397102 378.563293,118.866547 
	C384.160919,122.665916 389.912537,121.577065 395.204926,117.844772 
	C400.541046,122.339546 403.110870,122.254295 407.257782,116.937729 
	C404.879120,116.137680 402.747711,115.420784 399.875732,114.454819 
	C399.875732,105.823372 399.875732,96.460564 399.875732,86.661270 
	C394.318787,86.661270 389.363068,86.661270 383.611084,86.864265 
M270.866547,106.114861 
	C271.394501,98.370979 269.128998,91.873505 261.930634,88.113434 
	C256.002899,85.017075 249.927582,85.455551 244.518524,89.411819 
	C238.360428,93.915924 236.849670,100.377800 238.013168,107.603935 
	C239.212952,115.055382 245.254745,120.533440 252.603424,120.991440 
	C262.161652,121.587151 267.902283,117.153656 270.866547,106.114861 
M337.964294,119.576408 
	C339.529602,118.722305 341.094940,117.868202 342.915497,116.874825 
	C341.883850,115.291977 341.118408,114.117599 340.389984,112.999969 
	C327.530762,117.839867 322.481049,116.542397 321.227203,108.261261 
	C324.997314,107.876816 328.827271,107.788467 332.524109,107.041420 
	C338.715393,105.790306 342.132202,101.699158 341.870026,96.527229 
	C341.609344,91.385185 337.731079,87.344185 331.829346,86.421394 
	C326.663757,85.613716 322.327911,87.328232 319.027924,91.436333 
	C314.162140,97.493645 313.415619,108.829651 317.448059,114.970085 
	C321.219238,120.712738 328.058197,122.412758 337.964294,119.576408 
M520.698853,112.953941 
	C520.692078,107.634842 520.895813,102.305099 520.627502,96.999229 
	C520.257141,89.675377 515.576904,85.373573 508.561523,86.322533 
	C505.098358,86.790985 501.825897,88.669250 498.415985,89.928490 
	C497.498260,88.946693 496.301361,87.666229 495.128418,86.411407 
	C492.472168,87.834984 491.182404,88.927475 492.919403,91.927650 
	C494.063171,93.903191 494.035706,96.701241 494.083160,99.139748 
	C494.220947,106.215874 494.132019,113.296417 494.132019,120.801048 
	C496.439056,120.589813 497.978241,120.448891 499.696381,120.291573 
	C499.696381,113.108582 499.628448,106.468987 499.719727,99.831581 
	C499.783051,95.223740 504.042664,91.558876 509.062622,91.580269 
	C513.589600,91.599564 515.046631,93.425850 515.085999,99.243309 
	C515.119812,104.229752 514.581421,109.295731 515.323975,114.169952 
	C515.698120,116.625854 517.917175,119.762711 520.107849,120.692162 
	C522.052185,121.517067 525.110291,119.716751 527.676819,119.075256 
	C527.611511,118.342430 527.546204,117.609604 527.480896,116.876778 
	C525.773560,116.460594 524.021729,116.166565 522.380188,115.569405 
	C521.703186,115.323128 521.263123,114.425621 520.698853,112.953941 
M485.705261,106.874184 
	C486.536194,93.714005 478.213196,84.594208 466.969086,86.344337 
	C458.242004,87.702682 452.444580,94.710938 452.461121,103.882439 
	C452.476868,112.609001 458.309814,119.802078 466.268616,120.909599 
	C475.757965,122.230118 482.640808,117.492188 485.705261,106.874184 
M207.984360,87.184265 
	C200.318420,90.412437 196.880386,96.394890 197.075989,104.490227 
	C197.241516,111.341812 200.256805,116.656654 206.616547,119.630539 
	C213.123825,122.673424 221.197662,121.040504 225.892075,115.944305 
	C230.948929,110.454666 231.806839,100.735222 227.822372,94.076065 
	C224.021744,87.724121 217.046494,85.136375 207.984360,87.184265 
M260.295532,26.965080 
	C251.081238,24.883747 244.290054,29.142721 241.586548,38.698067 
	C238.681747,48.964867 242.460907,58.620785 250.496857,61.464260 
	C256.717865,63.665531 267.894409,61.399197 269.566284,57.372799 
	C268.862244,56.317142 268.076813,55.139473 267.235321,53.877712 
	C265.325653,54.680004 263.684662,55.452316 261.987091,56.068813 
	C252.661911,59.455368 245.816254,54.499374 246.392334,44.665394 
	C246.526154,42.381351 247.114304,40.063766 247.863312,37.889008 
	C249.233353,33.910969 252.068893,31.453941 256.404541,31.468744 
	C260.587250,31.483025 263.215729,33.642242 263.371185,38.165298 
	C265.467102,38.049080 267.083466,37.959454 268.832123,37.862492 
	C268.777374,32.143734 265.699829,29.063791 260.295532,26.965080 
M226.376663,61.935486 
	C229.199005,60.754196 232.021347,59.572910 235.178940,58.251308 
	C233.916245,56.337185 233.136047,55.154488 232.317856,53.914185 
	C229.942108,54.865967 227.852402,55.896328 225.650894,56.550186 
	C217.968857,58.831772 212.193588,55.090195 211.658035,47.162609 
	C211.451935,44.111652 212.063141,40.875351 212.941422,37.913094 
	C214.129822,33.904793 217.087570,31.462151 221.429504,31.462301 
	C225.627594,31.462446 228.243515,33.621357 228.422745,38.155888 
	C230.495956,38.048252 232.111252,37.964390 233.729996,37.880344 
	C233.207458,29.885632 226.577621,24.960403 218.777740,26.469271 
	C209.572998,28.249907 204.174713,38.182838 206.114594,49.769608 
	C207.648010,58.928635 214.577148,63.292000 226.376663,61.935486 
M168.940826,105.278435 
	C169.287476,102.826294 169.331039,100.281113 170.048843,97.942917 
	C171.250168,94.029770 173.767212,91.237595 178.197922,91.016754 
	C182.638290,90.795441 184.794189,93.416489 185.506439,97.750748 
	C187.287720,97.593102 188.817139,97.457741 190.471786,97.311310 
	C190.362457,92.003723 187.878296,88.928474 183.728699,87.193481 
	C178.726593,85.102043 173.906403,85.673096 169.652664,89.117744 
	C162.706940,94.742363 161.261734,108.539413 166.782547,115.585373 
	C172.057434,122.317467 182.890625,122.733826 191.355606,116.223747 
	C190.510513,114.998817 189.652618,113.755325 188.858093,112.603699 
	C176.374054,118.117218 170.804352,116.185341 168.940826,105.278435 
M313.128235,54.900364 
	C311.509399,53.284672 310.509277,53.556938 308.861145,55.343990 
	C305.913879,58.539761 301.458954,57.771271 301.241547,54.165401 
	C300.817261,47.128319 301.117096,40.047577 301.117096,32.642494 
	C304.794556,32.642494 307.886688,32.642494 311.098999,32.642494 
	C311.098999,30.684778 311.098999,29.095133 311.098999,26.985207 
	C307.630432,26.985207 304.408478,26.985207 300.808746,26.985207 
	C300.808746,24.044153 300.808746,21.623890 300.808746,18.913588 
	C298.807831,19.028475 297.232544,19.118923 295.425720,19.222666 
	C295.425720,30.674044 295.368011,41.779171 295.484833,52.882465 
	C295.503418,54.648201 296.025085,56.542484 296.801636,58.140472 
	C298.855682,62.367455 302.635468,63.530678 306.857391,62.461216 
	C310.399017,61.564072 314.121216,60.271675 313.128235,54.900364 
M413.083984,102.477081 
	C413.097534,105.638954 412.913879,108.817039 413.172058,111.958817 
	C413.536041,116.388313 415.127808,120.124466 420.192993,120.935799 
	C425.331909,121.758949 429.001221,119.638107 431.272308,114.504906 
	C430.123352,113.720154 428.937958,112.910492 428.918884,112.897469 
	C425.618805,114.129257 422.743347,116.229774 421.167236,115.504921 
	C419.558014,114.764832 418.621460,111.293274 418.454407,108.941948 
	C418.070374,103.535591 418.332733,98.083321 418.332733,92.483688 
	C422.037628,92.293877 425.104065,92.136772 428.431732,91.966293 
	C428.329681,90.089165 428.252472,88.669037 428.152954,86.838295 
	C424.759003,86.838295 421.680267,86.838295 418.542480,86.838295 
	C418.367401,84.009727 418.218597,81.605721 418.056396,78.984856 
	C416.211273,79.080116 414.797791,79.153091 413.083984,79.241570 
	C413.083984,86.883171 413.083984,94.183754 413.083984,102.477081 
M351.697083,86.861252 
	C349.576752,88.124207 348.863220,89.339127 350.368103,91.956017 
	C351.513123,93.947128 351.543243,96.725647 351.604584,99.165543 
	C351.771271,105.796089 351.680756,112.432930 351.732178,119.066971 
	C351.735565,119.503639 352.075165,119.937706 352.257416,120.370682 
	C353.772888,120.370682 355.180084,120.370682 356.981873,120.370682 
	C356.981873,113.652550 356.966156,107.215027 356.986267,100.777611 
	C357.006317,94.366066 360.082123,91.465744 366.509949,91.726875 
	C367.459778,91.765457 368.412476,91.732231 369.487061,91.732231 
	C369.487061,90.059464 369.487061,88.648643 369.487061,87.322174 
	C364.189697,84.943039 359.974304,86.742577 356.192047,90.072548 
	C354.843445,88.858856 353.644531,87.779869 351.697083,86.861252 
M278.407501,59.760616 
	C283.236267,64.033066 285.961121,63.867580 290.283173,58.402111 
	C287.817322,57.534233 285.610870,56.757668 282.733337,55.744900 
	C282.733337,46.868454 282.733337,37.141190 282.733337,27.262201 
	C280.684082,27.262201 279.106384,27.262201 277.055878,27.262201 
	C277.055878,33.255302 276.934387,39.027485 277.093567,44.791920 
	C277.225037,49.552959 277.688385,54.304832 278.407501,59.760616 
M408.004883,41.499428 
	C408.004883,36.725590 408.004883,31.951752 408.004883,27.006676 
	C405.928528,27.110695 404.466003,27.183966 402.673401,27.273771 
	C402.673401,36.938759 402.346008,46.419544 402.909027,55.847141 
	C403.045746,58.136894 405.719421,61.286449 407.952301,62.138184 
	C409.945343,62.898445 412.940613,61.031311 415.493622,60.323593 
	C415.418610,59.604401 415.343567,58.885208 415.268555,58.166016 
	C412.981537,57.498619 410.694489,56.831223 408.004883,56.046345 
	C408.004883,51.779903 408.004883,47.137238 408.004883,41.499428 
M445.710297,115.003815 
	C442.409882,116.501549 442.978027,113.939453 442.967529,112.271698 
	C442.915283,103.971382 442.943665,95.670563 442.943665,87.197243 
	C441.000244,87.197243 439.448273,87.197243 437.610199,87.197243 
	C437.610199,96.286522 437.278625,105.119873 437.828217,113.898056 
	C437.977692,116.286194 440.332825,119.575600 442.502350,120.490067 
	C444.463318,121.316605 447.553192,119.464813 450.145264,118.794090 
	C450.051605,118.287384 449.957977,117.780670 449.864319,117.273956 
	C448.761200,116.544312 447.658051,115.814659 445.710297,115.003815 
M468.913757,179.949142 
	C469.605713,180.264175 470.297668,180.579224 470.989624,180.894272 
	C471.067657,179.737091 471.113647,178.576660 471.230255,177.423370 
	C471.494446,174.810150 470.049957,171.128113 474.190674,170.814117 
	C474.877106,170.762054 475.987427,175.197327 476.743774,177.608536 
	C477.158783,178.931534 477.243530,180.358170 477.477173,181.738068 
	C478.022614,181.671661 478.568024,181.605255 479.113464,181.538849 
	C479.113464,179.285187 478.730652,176.940094 479.239868,174.808060 
	C479.617737,173.225861 481.153748,171.920303 482.173889,170.491516 
	C482.905243,171.927322 483.975830,173.293549 484.287933,174.815323 
	C484.748779,177.062805 484.670288,179.420898 484.821472,181.731873 
	C485.498260,181.676544 486.175049,181.621201 486.851837,181.565857 
	C486.851837,178.181946 487.308228,174.703354 486.635254,171.459015 
	C486.351959,170.093369 483.735199,168.390656 482.089783,168.289062 
	C477.860962,168.027924 473.582123,168.576523 468.892975,168.824219 
	C468.892975,172.129715 468.892975,175.598785 468.913757,179.949142 
M82.018593,164.594376 
	C81.936073,165.883911 81.853546,167.173447 81.771019,168.462982 
	C81.507797,168.090927 81.244583,167.718857 80.981361,167.346802 
	C78.679001,168.470886 75.303787,169.033264 74.346542,170.861618 
	C73.157021,173.133575 73.053383,176.854584 74.102547,179.234955 
	C76.291161,184.200500 80.897385,180.778473 84.816032,181.576752 
	C84.816032,175.652649 84.923615,170.178558 84.770340,164.711792 
	C84.694466,162.005402 84.451065,162.002808 82.018593,164.594376 
M88.657257,177.049408 
	C88.822426,185.970078 95.393684,179.656006 98.995941,181.967438 
	C98.995941,178.604553 99.389977,175.876633 98.864693,173.339005 
	C98.480881,171.484818 97.220467,168.918015 95.748802,168.408829 
	C93.898300,167.768616 91.433693,168.903366 89.234085,169.272202 
	C89.312561,169.678848 89.391037,170.085480 89.469505,170.492126 
	C91.653130,170.671570 93.836746,170.851013 96.020370,171.030457 
	C95.955704,171.396088 95.891029,171.761703 95.826363,172.127335 
	C93.519722,173.538925 91.213081,174.950516 88.657257,177.049408 
M224.369492,171.084167 
	C223.287094,172.012589 222.061356,172.820389 221.155289,173.897186 
	C219.736908,175.582794 218.534683,177.450256 217.240891,179.240677 
	C219.142975,180.064575 220.982285,181.157349 222.968475,181.621140 
	C224.375000,181.949585 225.980164,181.427399 227.724365,181.263550 
	C227.724365,178.273849 228.112000,175.402527 227.581802,172.712082 
	C227.253708,171.047241 225.771851,168.734512 224.374405,168.368668 
	C222.462021,167.868011 220.137741,168.940704 217.990021,169.339005 
	C218.080811,169.755020 218.171600,170.171036 218.262390,170.587051 
	C220.111725,170.587051 221.961044,170.587051 224.369492,171.084167 
M286.039734,181.400467 
	C290.393097,179.284836 287.366821,175.511719 287.743469,172.589294 
	C287.915161,171.256958 285.982269,168.709579 284.583191,168.349854 
	C282.699829,167.865646 280.409943,168.962570 278.294556,169.380875 
	C278.390381,169.772049 278.486237,170.163239 278.582062,170.554413 
	C280.734924,170.716522 282.887787,170.878616 285.040619,171.040710 
	C285.017792,171.572769 284.994934,172.104813 284.972076,172.636856 
	C283.428528,173.156296 281.477539,173.267090 280.443726,174.297806 
	C279.126709,175.610870 277.864532,177.696777 277.935364,179.392838 
	C277.972961,180.293259 280.813416,181.276367 282.517181,181.817795 
	C283.293732,182.064560 284.381409,181.332214 286.039734,181.400467 
M491.025818,178.352112 
	C494.732574,182.906891 497.565460,183.300125 500.933319,179.173721 
	C497.552551,179.835083 494.191101,180.814606 493.187408,176.052414 
	C496.106171,175.853577 498.804993,175.669724 501.503815,175.485870 
	C501.876556,174.991348 502.249329,174.496811 502.622101,174.002274 
	C500.868408,172.026291 499.334961,168.801102 497.296234,168.441666 
	C495.427643,168.112244 492.622131,170.536484 490.996033,172.412033 
	C490.107941,173.436310 490.809875,175.839157 491.025818,178.352112 
M465.535126,173.632736 
	C465.061035,170.328796 463.514465,167.315430 459.920898,168.256287 
	C457.716919,168.833298 454.707520,171.601181 454.582825,173.546921 
	C454.419617,176.094360 456.236237,179.329666 458.204132,181.231049 
	C459.291443,182.281631 462.427948,181.211365 464.640686,181.097168 
	C464.624115,180.490906 464.607544,179.884659 464.590973,179.278397 
	C461.545319,179.635406 458.050018,180.947205 457.153961,176.567886 
	C460.061279,175.807800 462.760834,175.102051 465.535126,173.632736 
M358.007233,170.550720 
	C358.007233,167.774384 358.007233,164.998062 358.007233,162.221725 
	C357.356018,162.189911 356.704803,162.158112 356.053589,162.126297 
	C355.662140,164.061371 355.270660,165.996445 354.885559,167.900238 
	C348.708008,168.176193 345.987854,170.659210 346.269562,175.647339 
	C346.555084,180.702484 348.462097,181.579559 358.007233,180.925339 
	C358.007233,177.798889 358.007233,174.655151 358.007233,170.550720 
M398.435303,180.553009 
	C397.594025,180.271103 396.736328,180.030029 395.914917,179.698822 
	C394.167725,178.994415 392.439484,178.243134 390.703491,177.511063 
	C390.892700,177.029724 391.081909,176.548401 391.271149,176.067062 
	C393.832642,175.877625 396.394135,175.688202 399.075195,175.489929 
	C399.499481,171.434845 398.658997,168.508774 394.348724,168.057770 
	C390.913391,167.698303 388.111572,170.864182 388.036682,174.863968 
	C387.931580,180.475204 391.931793,182.969009 398.435303,180.553009 
M299.448120,171.014755 
	C297.597382,174.954681 297.798096,178.610535 301.689056,181.086929 
	C304.130280,182.640656 306.825714,182.700272 309.121521,179.745224 
	C302.717621,179.773529 302.717621,179.773529 301.553925,175.576935 
	C304.277740,175.576935 306.868286,175.576935 311.289551,175.576935 
	C309.195343,172.433105 308.255463,169.478119 306.402527,168.701401 
	C304.751892,168.009521 302.090790,169.728287 299.448120,171.014755 
M178.776871,173.174072 
	C178.081970,176.602707 178.743271,179.799927 182.113571,181.150070 
	C184.083755,181.939331 186.628662,181.293900 188.915024,181.293900 
	C188.948074,180.695877 188.981125,180.097855 189.014175,179.499832 
	C186.005356,179.448898 182.153336,180.991547 181.441284,175.960602 
	C184.294937,175.831100 186.903275,175.712738 191.439453,175.506882 
	C189.214645,172.361481 188.200989,169.418045 186.231659,168.479172 
	C182.818283,166.851837 180.284149,169.065353 178.776871,173.174072 
M133.654831,179.761047 
	C132.709885,178.747009 131.764954,177.732986 130.176300,176.028183 
	C133.909210,175.826965 136.350693,175.695343 138.794662,175.563599 
	C139.603195,171.832550 138.783676,168.606430 135.228348,168.378677 
	C133.086777,168.241501 129.871887,170.213577 128.745483,172.164963 
	C126.859192,175.432755 127.810799,179.020691 131.369965,181.201859 
	C133.950577,182.783371 136.122757,182.194366 138.445999,179.224411 
	C136.854645,179.487976 135.627045,179.691284 133.654831,179.761047 
M363.463715,180.143265 
	C366.326904,182.454178 369.125275,182.915344 372.070618,179.527939 
	C368.716064,179.953644 365.222198,180.837082 364.390350,175.953873 
	C367.272217,175.824356 369.880920,175.707123 372.608826,175.584534 
	C373.085449,171.420670 372.059570,168.404694 367.842377,168.112213 
	C363.734375,167.827332 361.878693,170.752090 361.622528,174.412949 
	C361.504974,176.093201 362.481659,177.850021 363.463715,180.143265 
M323.606018,168.014999 
	C319.861969,168.541367 317.653442,170.924408 318.130646,174.452118 
	C318.462341,176.904221 319.951080,179.734818 321.841370,181.252075 
	C323.092346,182.256210 325.969391,181.234573 328.118469,181.119843 
	C328.133362,180.581818 328.148285,180.043777 328.163208,179.505753 
	C325.357635,179.377914 321.542023,181.175781 320.967010,176.123947 
	C323.717468,175.879959 326.259949,175.654434 328.816986,175.427597 
	C329.324799,171.434280 328.381287,168.783295 323.606018,168.014999 
M451.255707,172.276260 
	C449.316437,165.193542 444.057312,169.517090 440.458618,168.624802 
	C440.458618,175.007126 440.458618,180.950043 440.458618,186.892975 
	C440.851196,186.958649 441.243805,187.024323 441.636383,187.089981 
	C442.128998,185.426346 442.621613,183.762711 443.118103,182.096298 
	C449.931030,181.803696 451.580688,180.011139 451.255707,172.276260 
M273.419464,170.460556 
	C270.930328,165.215591 266.576233,170.301651 263.741577,168.402664 
	C263.741577,173.051315 263.741577,177.413528 263.741577,181.775757 
	C264.287842,181.784286 264.834137,181.792816 265.380402,181.801346 
	C265.535095,179.495972 265.359955,177.100922 265.954315,174.915115 
	C266.388885,173.316971 267.835541,171.994034 268.831085,170.548431 
	C269.588409,171.943436 270.709351,173.262863 271.018677,174.750992 
	C271.494507,177.039963 271.413086,179.444794 271.568115,181.800461 
	C272.291107,181.764420 273.014130,181.728378 273.737152,181.692337 
	C273.737152,178.211777 273.737152,174.731232 273.419464,170.460556 
M163.426773,175.419403 
	C163.608231,177.537445 163.789703,179.655487 163.971161,181.773529 
	C164.751144,181.677902 165.531113,181.582291 166.311096,181.486664 
	C165.898560,177.499191 166.421158,173.014069 164.676453,169.735489 
	C163.812317,168.111633 158.775040,168.708511 155.014771,168.221527 
	C155.269348,173.172363 155.486496,177.395218 155.703659,181.618073 
	C156.455963,181.607574 157.208282,181.597076 157.960602,181.586578 
	C157.960602,179.366501 157.594406,177.062241 158.079086,174.953568 
	C158.451660,173.332596 159.895493,171.957870 160.862961,170.473648 
	C161.714005,171.815948 162.565048,173.158249 163.426773,175.419403 
M435.979340,172.023514 
	C433.846130,165.397491 428.884247,169.407242 425.454163,168.723526 
	C425.454163,175.055344 425.454163,180.978775 425.454163,186.902206 
	C425.893524,186.918198 426.332886,186.934174 426.772247,186.950165 
	C426.971436,185.121765 427.170593,183.293365 427.383423,181.462341 
	C434.236023,182.517517 436.253082,180.525375 435.979340,172.023514 
M213.657806,174.771301 
	C213.176285,172.882324 213.144165,169.707550 212.126709,169.351944 
	C209.372009,168.389145 206.198807,168.623749 203.495560,168.407745 
	C203.495560,173.177185 203.495560,177.438705 203.495560,181.700211 
	C203.980988,181.716629 204.466415,181.733032 204.951859,181.749451 
	C205.097443,179.244171 204.910446,176.654907 205.513824,174.265228 
	C205.873550,172.840561 207.474243,171.729263 208.517059,170.477081 
	C209.334534,171.700500 210.615692,172.835678 210.868896,174.166458 
	C211.335144,176.616837 211.197113,179.182175 211.310913,181.699585 
	C211.894989,181.727051 212.479065,181.754517 213.063126,181.781982 
	C213.261597,179.732880 213.460068,177.683792 213.657806,174.771301 
M511.647308,168.007187 
	C509.488647,168.346481 507.330017,168.685776 505.586731,168.959778 
	C505.586731,173.251633 505.586731,177.504120 505.586731,181.756622 
	C506.131104,181.761520 506.675507,181.766434 507.219879,181.771332 
	C507.348846,179.156937 507.189117,176.481171 507.726196,173.953491 
	C508.003235,172.649811 509.519257,171.609390 510.475464,170.450027 
	C511.324554,171.604156 512.719849,172.676239 512.908142,173.929642 
	C513.291199,176.479675 513.022705,179.127579 513.022705,181.735153 
	C517.201782,177.197250 516.297913,170.839905 511.647308,168.007187 
M55.028591,179.263855 
	C55.365021,177.346115 56.116398,175.390854 55.947159,173.518814 
	C55.642033,170.143677 53.544468,168.042023 50.014496,168.059799 
	C46.469673,168.077621 44.134003,170.312210 44.206978,173.589035 
	C44.262741,176.093170 45.289116,179.580124 47.097355,180.743332 
	C48.732861,181.795441 52.012039,180.292465 55.028591,179.263855 
M259.370819,176.856354 
	C260.128235,172.745483 258.993256,169.400452 254.752090,168.233261 
	C251.434372,167.320221 248.946472,168.982574 247.803101,172.306732 
	C246.509460,176.067673 247.204025,179.432465 250.869629,181.250458 
	C254.742859,183.171417 257.560211,181.467514 259.370819,176.856354 
M409.349274,177.759796 
	C410.954468,181.269440 413.568604,183.013107 417.318970,181.446472 
	C421.274872,179.793915 422.069641,176.006027 420.653015,172.702332 
	C419.775635,170.656158 416.735260,168.365417 414.587128,168.284958 
	C410.367676,168.126968 408.932556,171.570419 408.990295,175.501984 
	C408.997559,175.996948 409.072235,176.490906 409.349274,177.759796 
M340.011536,74.377594 
	C339.273285,73.528183 338.535034,72.678772 337.818359,71.854202 
	C326.255219,79.567276 325.990173,79.930504 329.230865,83.935379 
	C332.106171,82.087379 335.090637,80.331612 337.873169,78.299309 
	C338.955719,77.508629 339.582825,76.094376 340.011536,74.377594 
M385.981415,169.015015 
	C385.043274,169.579041 383.638977,169.926437 383.256805,170.748810 
	C382.220612,172.978638 381.618011,175.409927 380.607574,178.477554 
	C379.024811,174.376968 377.792450,171.184280 376.560089,167.991577 
	C375.929871,168.210876 375.299622,168.430161 374.669403,168.649445 
	C375.843964,172.243530 376.931396,175.870102 378.252045,179.409683 
	C378.598785,180.339020 379.668304,180.998688 380.405914,181.782166 
	C381.235809,180.901016 382.408325,180.158340 382.830963,179.112595 
	C384.062927,176.064331 384.995056,172.894897 385.981415,169.015015 
M332.247925,175.471039 
	C332.698578,181.833267 333.672119,182.693741 338.472626,180.972855 
	C333.697540,177.968216 333.599884,172.772156 334.153748,173.158707 
	C333.686981,170.670517 333.220245,168.182327 332.733490,165.587585 
	C330.004822,167.707230 332.088837,171.303650 332.247925,175.471039 
M38.169529,168.059830 
	C36.327053,169.053940 34.484581,170.048050 32.642113,171.042160 
	C33.506947,172.456146 34.231701,173.985733 35.276196,175.251450 
	C36.310795,176.505173 37.667828,177.492828 38.883438,178.597183 
	C37.142498,178.698349 35.399025,178.770248 33.662338,178.920547 
	C33.207771,178.959900 32.774284,179.242844 31.592789,179.698914 
	C34.631397,182.192963 37.941399,183.374390 40.188480,180.763443 
	C45.792694,174.251755 35.964813,175.073090 34.881130,170.624847 
	C37.067757,170.524582 38.915138,170.439865 41.645260,170.314682 
	C40.307312,169.279480 39.616096,168.744659 38.169529,168.059830 
M236.411819,168.114563 
	C235.491379,167.014236 234.570938,165.913895 233.442657,164.565094 
	C229.408401,169.750275 232.409683,174.922348 232.876175,179.844711 
	C232.965408,180.786331 236.088684,181.440399 237.812180,182.227142 
	C237.961136,181.822144 238.110077,181.417145 238.259018,181.012146 
	C233.700241,177.749496 233.589310,174.449249 237.792038,169.807388 
	C237.959106,169.622849 237.412552,168.792175 236.411819,168.114563 
M119.298714,170.732773 
	C119.559509,173.137680 119.768257,175.549637 120.092926,177.945892 
	C120.622200,181.852386 122.885643,182.796951 126.261726,180.575638 
	C121.616608,178.120026 121.469215,172.642654 124.233238,170.656448 
	C123.222832,169.082962 122.036194,167.235062 120.733604,165.206589 
	C120.148972,166.643082 119.411774,168.454422 119.298714,170.732773 
M525.863037,168.743805 
	C524.432739,167.504150 523.002380,166.264481 521.473206,164.939148 
	C520.544128,166.277893 518.664917,167.751312 518.742188,169.113800 
	C518.946411,172.715744 519.594666,176.418533 520.841003,179.795227 
	C521.824768,182.460449 524.194824,182.844833 525.813599,181.501068 
	C524.678284,179.370285 523.408020,177.863022 523.081665,176.173401 
	C522.559570,173.470764 522.680664,170.654861 525.863037,168.743805 
M294.898956,173.364838 
	C294.794281,169.615280 294.689606,165.865723 294.584900,162.116165 
	C293.849762,162.158295 293.114655,162.200409 292.379517,162.242523 
	C292.379517,168.306274 292.301361,174.372604 292.500427,180.429825 
	C292.520325,181.035217 294.224731,181.585236 295.558441,182.417480 
	C295.287598,179.085312 295.093231,176.693649 294.898956,173.364838 
M173.261414,167.158020 
	C172.939331,166.390259 172.617249,165.622498 172.161392,164.535843 
	C168.206360,169.736206 171.453125,174.792969 171.349594,179.654404 
	C171.331924,180.483810 174.480103,181.380630 176.165741,182.246292 
	C176.333099,181.833130 176.500473,181.419952 176.667831,181.006775 
	C171.740631,177.734406 171.721527,172.571396 177.028732,168.958206 
	C175.726318,168.516006 174.699341,168.167343 173.261414,167.158020 
M193.014404,170.208359 
	C193.128769,174.074219 193.243118,177.940094 193.357468,181.805954 
	C194.059677,181.791763 194.761871,181.777573 195.464066,181.763382 
	C195.596161,179.286469 195.205002,176.620728 196.011139,174.387085 
	C196.779419,172.258301 198.796570,170.580261 200.921432,167.864761 
	C197.840485,168.462830 195.466232,168.923706 193.014404,170.208359 
M103.038528,179.046066 
	C103.409157,179.998245 103.779793,180.950424 104.590050,183.032043 
	C107.297028,177.568863 102.982697,170.742722 111.531303,169.408752 
	C111.141556,169.023087 110.751808,168.637421 110.362061,168.251770 
	C108.055138,168.413254 105.748207,168.574753 103.035858,168.764633 
	C103.035858,171.918396 103.035858,175.039688 103.038528,179.046066 
M442.839325,74.602715 
	C441.092468,74.471458 439.207764,73.919395 437.669006,74.423462 
	C437.082703,74.615509 436.742584,77.503281 437.314331,78.653389 
	C437.748993,79.527664 440.568848,80.324913 440.988251,79.883644 
	C442.108093,78.705383 442.506165,76.841133 442.839325,74.602715 
M408.076477,18.681410 
	C407.611511,16.891006 407.408661,14.947802 406.511688,13.409263 
	C406.263245,12.983164 403.376068,13.298283 402.733490,14.100987 
	C401.930695,15.103875 401.701447,18.086342 402.086395,18.255732 
	C403.733398,18.980471 405.697540,18.984528 408.076477,18.681410 
M281.900482,19.441416 
	C281.921143,17.562563 282.206421,15.618424 281.770691,13.852170 
	C281.665771,13.426845 278.837677,13.044921 277.868195,13.636556 
	C276.882019,14.238357 275.905273,16.957901 276.204315,17.205770 
	C277.629700,18.387127 279.490875,19.042690 281.900482,19.441416 
M151.003250,171.830658 
	C150.772400,170.598679 150.541534,169.366699 150.310684,168.134720 
	C149.763123,168.205338 149.215561,168.275940 148.667999,168.346558 
	C147.950531,172.819901 147.608612,177.281372 148.829880,181.693420 
	C149.554443,181.702682 150.279007,181.711929 151.003571,181.721191 
	C151.003571,178.724854 151.003571,175.728500 151.003250,171.830658 
M241.101089,175.458206 
	C241.285645,177.586761 241.470215,179.715332 241.654785,181.843887 
	C242.186462,181.807770 242.718155,181.771652 243.249832,181.735535 
	C243.249832,177.245377 243.249832,172.755234 243.249832,168.265076 
	C242.718399,168.217636 242.186966,168.170212 241.655533,168.122772 
	C241.470749,170.264114 241.285965,172.405457 241.101089,175.458206 
M405.007996,171.476242 
	C405.007996,168.447037 405.007996,165.417831 405.007996,162.388611 
	C404.564301,162.410889 404.120605,162.433167 403.676910,162.455444 
	C401.311279,169.468414 402.486816,180.462433 405.548462,181.407120 
	C405.370361,178.446228 405.189209,175.433990 405.007996,171.476242 
M59.872086,164.948502 
	C59.857643,180.490402 59.857643,180.490402 62.126732,181.283264 
	C62.126732,175.117325 62.126732,168.759872 62.126732,162.402420 
	C61.697731,162.345001 61.268730,162.287582 60.839729,162.230179 
	C60.524101,162.837753 60.208469,163.445343 59.872086,164.948502 
M69.351204,180.524261 
	C69.184502,176.470520 70.523849,172.196884 67.731071,168.477020 
	C67.036560,172.416809 66.983955,176.302536 67.120354,180.181625 
	C67.133560,180.557281 68.317047,180.891800 69.351204,180.524261 
M112.905945,179.068954 
	C113.210243,179.956894 113.514549,180.844849 113.818855,181.732788 
	C114.017265,181.649765 114.215668,181.566742 114.414078,181.483719 
	C114.414078,177.128784 114.414078,172.773834 114.414078,168.418900 
	C113.910309,168.435349 113.406540,168.451813 112.902771,168.468262 
	C112.902771,171.700394 112.902771,174.932510 112.905945,179.068954 
z"/>
<path fill="#0F95A0" opacity="1.000000" stroke="none" 
	d="
M114.231125,120.590027 
	C90.637100,134.131699 62.161285,129.397522 44.918446,109.066589 
	C28.040335,89.165726 27.645447,59.835499 43.981083,39.442837 
	C60.768818,18.485800 88.926506,13.128043 113.441216,26.684826 
	C106.053352,33.083408 98.771133,39.181988 94.529449,48.217163 
	C74.991493,43.069729 57.982948,57.410252 59.999779,76.897362 
	C61.738152,93.693985 80.496445,105.337753 94.879410,98.947441 
	C99.294983,108.322838 106.263222,114.911324 114.231125,120.590027 
z"/>
<path fill="#B3C553" opacity="1.000000" stroke="none" 
	d="
M94.938614,48.305183 
	C98.771133,39.181988 106.053352,33.083408 113.718773,26.943512 
	C114.309135,26.672886 114.683807,26.590443 115.489761,26.774082 
	C123.319557,33.075981 130.819138,39.026325 134.553833,48.644569 
	C122.254791,54.747673 116.272041,64.403854 118.078133,77.834969 
	C119.419037,87.806618 125.318260,94.695229 134.820160,98.321220 
	C134.820160,98.321220 134.918762,98.559891 134.797577,99.021851 
	C129.962311,108.282806 123.261337,115.219482 114.891632,120.592064 
	C114.891632,120.592064 114.558815,120.638718 114.394974,120.614372 
	C106.263222,114.911324 99.294983,108.322838 94.887375,98.978729 
	C94.853294,98.584557 94.929543,98.510857 95.301666,98.417053 
	C104.945892,94.661118 110.806992,88.237923 112.248749,77.884583 
	C112.522522,77.157539 112.605209,76.628662 112.798714,75.682617 
	C112.907379,62.448830 106.791397,53.366409 94.922989,48.562046 
	C94.865715,48.484200 94.938614,48.305183 94.938614,48.305183 
z"/>
<path fill="#1095A0" opacity="1.000000" stroke="none" 
	d="
M135.034149,97.996307 
	C125.318260,94.695229 119.419037,87.806618 118.078133,77.834969 
	C116.272041,64.403854 122.254791,54.747673 134.553833,48.644569 
	C130.819138,39.026325 123.319557,33.075981 115.775696,26.748520 
	C123.946266,21.617441 132.868195,19.084490 142.790375,19.064861 
	C142.790375,28.438774 142.790375,37.492596 142.790375,46.623432 
	C140.357071,47.207985 137.993652,47.775749 135.048157,48.483345 
	C142.355606,65.047943 143.154877,81.400009 135.034149,97.996307 
z"/>
<path fill="#807977" opacity="1.000000" stroke="none" 
	d="
M141.999969,151.799622 
	C105.138298,151.799515 68.776619,151.799515 32.414944,151.799515 
	C32.416828,151.358932 32.418713,150.918335 32.420593,150.477753 
	C197.822144,150.477753 363.223663,150.477753 528.625244,150.477753 
	C528.626892,150.918411 528.628601,151.359070 528.630310,151.799728 
	C399.920227,151.799728 271.210114,151.799728 141.999969,151.799622 
z"/>
<path fill="#2D445A" opacity="1.000000" stroke="none" 
	d="
M302.190277,117.251846 
	C296.527283,119.132500 291.138275,120.762329 284.910034,122.645981 
	C284.910034,126.305565 284.910034,131.388870 284.910034,136.742035 
	C282.865021,136.742035 281.289886,136.742035 279.188660,136.742035 
	C279.188660,124.412247 279.297882,112.131821 279.111572,99.855865 
	C279.065216,96.804428 277.855957,93.785172 277.594208,90.715904 
	C277.476013,89.330101 278.369598,87.858017 279.055969,85.594620 
	C281.143982,87.578979 282.314148,88.691048 283.510742,89.828224 
	C291.135162,85.058319 297.344421,85.038925 302.470978,89.842598 
	C308.220032,95.229591 309.487183,106.028267 305.168854,113.446686 
	C304.425537,114.723572 303.373596,115.820808 302.190277,117.251846 
M285.263397,96.418915 
	C285.263397,102.673035 285.263397,108.927147 285.263397,115.144287 
	C297.715851,118.070137 305.236084,110.623238 301.305908,98.981445 
	C300.375427,96.225182 297.721680,93.263458 295.097351,92.058517 
	C291.536072,90.423378 287.972534,92.183212 285.263397,96.418915 
z"/>
<path fill="#284157" opacity="1.000000" stroke="none" 
	d="
M328.527130,28.273140 
	C335.375885,27.526127 341.885834,26.958401 348.851074,26.350965 
	C348.851074,37.119267 348.851074,46.730560 348.851074,56.050591 
	C351.529663,56.798584 353.821320,57.438526 356.253448,58.117691 
	C352.988831,64.741730 348.456146,63.329025 343.862457,59.438202 
	C335.968170,64.315094 328.154236,63.547272 323.367554,57.424324 
	C317.633026,50.088909 318.204834,37.490295 324.624542,31.155615 
	C325.676910,30.117182 326.993713,29.346737 328.527130,28.273140 
M343.338257,34.722530 
	C342.260132,33.826889 341.264832,32.300766 340.089325,32.146370 
	C335.371063,31.526646 330.538544,31.515713 327.543488,36.137245 
	C324.306702,41.131901 324.328857,46.534855 326.659119,51.888287 
	C328.553406,56.240166 332.308472,58.122890 336.840790,56.999294 
	C341.084503,55.947243 343.260315,53.059399 343.311615,48.674904 
	C343.362305,44.345081 343.337189,40.014370 343.338257,34.722530 
z"/>
<path fill="#284057" opacity="1.000000" stroke="none" 
	d="
M445.630859,41.134697 
	C441.638062,47.714157 439.981354,48.323383 424.828278,49.096569 
	C425.504333,57.721989 431.735779,59.380695 444.671875,54.216919 
	C445.438202,55.379742 446.233704,56.586857 447.070831,57.857117 
	C446.651550,58.360924 446.424866,58.900379 446.046753,59.045658 
	C442.819336,60.285622 439.652893,61.951363 436.300659,62.547417 
	C427.484253,64.115044 420.465515,59.282185 418.615295,50.491203 
	C417.061401,43.108154 418.460571,36.218540 423.698212,30.556042 
	C427.672913,26.258991 434.420380,25.317657 439.807983,27.910347 
	C444.822571,30.323538 446.411438,33.739254 445.630859,41.134697 
M431.132385,32.029881 
	C426.068604,34.080006 424.526093,38.211491 423.803528,43.795082 
	C428.462128,43.437340 432.527985,43.648289 436.247894,42.614441 
	C438.054901,42.112232 440.521484,39.129974 440.338287,37.541653 
	C440.106415,35.531574 437.664825,33.571098 435.799927,32.050915 
	C435.000488,31.399258 433.252625,31.911047 431.132385,32.029881 
z"/>
<path fill="#273F56" opacity="1.000000" stroke="none" 
	d="
M191.123566,29.747219 
	C197.723953,35.021267 199.129852,41.831749 197.692154,49.241169 
	C196.472305,55.527832 192.528030,59.936363 186.292709,61.899696 
	C178.601685,64.321396 170.734741,61.599842 166.561340,55.241993 
	C162.137344,48.502346 162.698380,38.510223 167.840973,32.451618 
	C172.755936,26.661179 180.911774,24.891964 188.235016,28.063280 
	C189.140656,28.455469 189.967575,29.029491 191.123566,29.747219 
M171.527802,52.783470 
	C175.890961,57.333397 181.401932,58.579369 186.278702,56.118496 
	C191.150482,53.660141 193.423691,47.823673 192.145248,41.056038 
	C191.129608,35.679489 187.302979,32.269299 181.908661,31.933435 
	C176.095734,31.571503 171.098312,34.302845 170.207916,39.667984 
	C169.544968,43.662659 170.742691,47.966114 171.527802,52.783470 
z"/>
<path fill="#2C4359" opacity="1.000000" stroke="none" 
	d="
M386.476501,29.538628 
	C387.687103,33.075619 389.184418,36.301899 389.453461,39.627548 
	C389.905792,45.218468 389.577332,50.872555 389.577332,56.131435 
	C392.255402,56.971115 394.444733,57.657558 396.634033,58.344006 
	C396.744080,59.011044 396.854126,59.678085 396.964142,60.345123 
	C394.465790,61.167377 391.897400,62.817387 389.485840,62.613342 
	C386.068726,62.324223 384.062012,59.587864 384.018738,55.945053 
	C383.955475,50.622490 384.027374,45.298416 383.980774,39.975521 
	C383.929047,34.068958 382.227081,31.973238 377.580566,31.941900 
	C372.439911,31.907232 367.890656,35.779999 367.830658,40.449535 
	C367.741180,47.413612 367.807434,54.379684 367.807434,61.716034 
	C365.958618,61.852119 364.381744,61.968185 362.567993,62.101692 
	C360.612610,51.249012 364.406250,40.063469 359.760132,29.244026 
	C360.504028,28.581949 361.570465,27.632839 362.952545,26.402815 
	C364.335938,27.969810 365.512421,29.302441 366.917938,30.894520 
	C372.832428,26.377705 379.263397,24.356098 386.476501,29.538628 
z"/>
<path fill="#263F55" opacity="1.000000" stroke="none" 
	d="
M384.009216,86.762772 
	C389.363068,86.661270 394.318787,86.661270 399.875732,86.661270 
	C399.875732,96.460564 399.875732,105.823372 399.875732,114.454819 
	C402.747711,115.420784 404.879120,116.137680 407.257782,116.937729 
	C403.110870,122.254295 400.541046,122.339546 395.204926,117.844772 
	C389.912537,121.577065 384.160919,122.665916 378.563293,118.866547 
	C371.978516,114.397102 370.939240,107.515923 371.982849,100.227921 
	C372.964966,93.369118 376.685425,88.664734 384.009216,86.762772 
M376.991272,104.414101 
	C377.263153,105.881508 377.409790,107.385841 377.829529,108.809654 
	C379.318451,113.860344 382.892700,116.528831 387.236145,115.954086 
	C391.735779,115.358658 394.535309,112.053841 394.680847,106.809647 
	C394.814270,102.003517 394.709167,97.190765 394.709167,92.465752 
	C382.603485,89.963875 378.100677,92.869598 376.991272,104.414101 
z"/>
<path fill="#284157" opacity="1.000000" stroke="none" 
	d="
M270.821289,106.535812 
	C267.902283,117.153656 262.161652,121.587151 252.603424,120.991440 
	C245.254745,120.533440 239.212952,115.055382 238.013168,107.603935 
	C236.849670,100.377800 238.360428,93.915924 244.518524,89.411819 
	C249.927582,85.455551 256.002899,85.017075 261.930634,88.113434 
	C269.128998,91.873505 271.394501,98.370979 270.821289,106.535812 
M247.716660,113.981926 
	C248.759521,114.469963 249.763000,115.084404 250.852173,115.423782 
	C255.186264,116.774277 259.162750,115.947723 262.221771,112.614746 
	C266.095764,108.393753 266.156067,103.244995 264.460083,98.161812 
	C262.994995,93.770523 259.443604,91.743767 254.900070,91.541183 
	C250.173569,91.330460 246.323608,93.076462 244.406174,97.524658 
	C241.909698,103.316116 242.406769,108.832321 247.716660,113.981926 
z"/>
<path fill="#284157" opacity="1.000000" stroke="none" 
	d="
M337.582489,119.728294 
	C328.058197,122.412758 321.219238,120.712738 317.448059,114.970085 
	C313.415619,108.829651 314.162140,97.493645 319.027924,91.436333 
	C322.327911,87.328232 326.663757,85.613716 331.829346,86.421394 
	C337.731079,87.344185 341.609344,91.385185 341.870026,96.527229 
	C342.132202,101.699158 338.715393,105.790306 332.524109,107.041420 
	C328.827271,107.788467 324.997314,107.876816 321.227173,108.260818 
	C322.481049,116.542397 327.530762,117.839867 340.389984,112.999969 
	C341.118408,114.117599 341.883850,115.291977 342.915497,116.874825 
	C341.094940,117.868202 339.529602,118.722305 337.582489,119.728294 
M322.711853,102.708389 
	C325.987640,102.436089 329.346527,102.525375 332.517365,101.796524 
	C336.174988,100.955803 337.501434,97.006966 335.585510,93.972527 
	C333.822174,91.179832 329.187195,90.389214 325.774261,92.298943 
	C321.990112,94.416389 320.109619,99.357262 322.711853,102.708389 
z"/>
<path fill="#31475D" opacity="1.000000" stroke="none" 
	d="
M520.707031,113.389130 
	C521.263123,114.425621 521.703186,115.323128 522.380188,115.569405 
	C524.021729,116.166565 525.773560,116.460594 527.480896,116.876778 
	C527.546204,117.609604 527.611511,118.342430 527.676819,119.075256 
	C525.110291,119.716751 522.052185,121.517067 520.107849,120.692162 
	C517.917175,119.762711 515.698120,116.625854 515.323975,114.169952 
	C514.581421,109.295731 515.119812,104.229752 515.085999,99.243309 
	C515.046631,93.425850 513.589600,91.599564 509.062622,91.580269 
	C504.042664,91.558876 499.783051,95.223740 499.719727,99.831581 
	C499.628448,106.468987 499.696381,113.108582 499.696381,120.291573 
	C497.978241,120.448891 496.439056,120.589813 494.132019,120.801048 
	C494.132019,113.296417 494.220947,106.215874 494.083160,99.139748 
	C494.035706,96.701241 494.063171,93.903191 492.919403,91.927650 
	C491.182404,88.927475 492.472168,87.834984 495.128418,86.411407 
	C496.301361,87.666229 497.498260,88.946693 498.415985,89.928490 
	C501.825897,88.669250 505.098358,86.790985 508.561523,86.322533 
	C515.576904,85.373573 520.257141,89.675377 520.627502,96.999229 
	C520.895813,102.305099 520.692078,107.634842 520.707031,113.389130 
z"/>
<path fill="#284157" opacity="1.000000" stroke="none" 
	d="
M485.599640,107.274826 
	C482.640808,117.492188 475.757965,122.230118 466.268616,120.909599 
	C458.309814,119.802078 452.476868,112.609001 452.461121,103.882439 
	C452.444580,94.710938 458.242004,87.702682 466.969086,86.344337 
	C478.213196,84.594208 486.536194,93.714005 485.599640,107.274826 
M462.392395,93.602692 
	C461.440552,94.733490 460.211426,95.729675 459.585602,97.018745 
	C457.086731,102.166313 457.071503,107.401520 460.636505,111.997269 
	C463.661041,115.896339 467.970703,116.897156 472.703430,115.378975 
	C479.075714,113.334869 482.182434,105.620239 479.583069,98.468651 
	C477.236633,92.012947 470.619202,89.877998 462.392395,93.602692 
z"/>
<path fill="#284157" opacity="1.000000" stroke="none" 
	d="
M208.372681,87.094360 
	C217.046494,85.136375 224.021744,87.724121 227.822372,94.076065 
	C231.806839,100.735222 230.948929,110.454666 225.892075,115.944305 
	C221.197662,121.040504 213.123825,122.673424 206.616547,119.630539 
	C200.256805,116.656654 197.241516,111.341812 197.075989,104.490227 
	C196.880386,96.394890 200.318420,90.412437 208.372681,87.094360 
M202.716461,101.787788 
	C202.221359,107.305298 203.307144,112.175606 208.745529,114.871452 
	C214.549469,117.748520 221.398712,115.171066 223.817459,109.393013 
	C226.777832,102.321083 223.899948,94.081879 217.765930,92.067810 
	C210.645615,89.729889 204.855103,93.166916 202.716461,101.787788 
z"/>
<path fill="#0F95A0" opacity="1.000000" stroke="none" 
	d="
M115.244446,120.747162 
	C123.261337,115.219482 129.962311,108.282806 134.782349,99.150055 
	C137.441818,99.430176 139.995331,100.044037 142.780487,100.713593 
	C142.780487,109.771919 142.780487,118.806946 142.780487,128.173218 
	C132.794937,128.432938 123.950783,125.619240 115.244446,120.747162 
z"/>
<path fill="#284057" opacity="1.000000" stroke="none" 
	d="
M260.677185,27.046375 
	C265.699829,29.063791 268.777374,32.143734 268.832123,37.862492 
	C267.083466,37.959454 265.467102,38.049080 263.371185,38.165298 
	C263.215729,33.642242 260.587250,31.483025 256.404541,31.468744 
	C252.068893,31.453941 249.233353,33.910969 247.863312,37.889008 
	C247.114304,40.063766 246.526154,42.381351 246.392334,44.665394 
	C245.816254,54.499374 252.661911,59.455368 261.987091,56.068813 
	C263.684662,55.452316 265.325653,54.680004 267.235321,53.877712 
	C268.076813,55.139473 268.862244,56.317142 269.566284,57.372799 
	C267.894409,61.399197 256.717865,63.665531 250.496857,61.464260 
	C242.460907,58.620785 238.681747,48.964867 241.586548,38.698067 
	C244.290054,29.142721 251.081238,24.883747 260.677185,27.046375 
z"/>
<path fill="#284057" opacity="1.000000" stroke="none" 
	d="
M225.972809,61.977867 
	C214.577148,63.292000 207.648010,58.928635 206.114594,49.769608 
	C204.174713,38.182838 209.572998,28.249907 218.777740,26.469271 
	C226.577621,24.960403 233.207458,29.885632 233.729996,37.880344 
	C232.111252,37.964390 230.495956,38.048252 228.422745,38.155888 
	C228.243515,33.621357 225.627594,31.462446 221.429504,31.462301 
	C217.087570,31.462151 214.129822,33.904793 212.941422,37.913094 
	C212.063141,40.875351 211.451935,44.111652 211.658035,47.162609 
	C212.193588,55.090195 217.968857,58.831772 225.650894,56.550186 
	C227.852402,55.896328 229.942108,54.865967 232.317856,53.914185 
	C233.136047,55.154488 233.916245,56.337185 235.178940,58.251308 
	C232.021347,59.572910 229.199005,60.754196 225.972809,61.977867 
z"/>
<path fill="#2A4258" opacity="1.000000" stroke="none" 
	d="
M168.952759,105.703529 
	C170.804352,116.185341 176.374054,118.117218 188.858093,112.603699 
	C189.652618,113.755325 190.510513,114.998817 191.355606,116.223747 
	C182.890625,122.733826 172.057434,122.317467 166.782547,115.585373 
	C161.261734,108.539413 162.706940,94.742363 169.652664,89.117744 
	C173.906403,85.673096 178.726593,85.102043 183.728699,87.193481 
	C187.878296,88.928474 190.362457,92.003723 190.471786,97.311310 
	C188.817139,97.457741 187.287720,97.593102 185.506439,97.750748 
	C184.794189,93.416489 182.638290,90.795441 178.197922,91.016754 
	C173.767212,91.237595 171.250168,94.029770 170.048843,97.942917 
	C169.331039,100.281113 169.287476,102.826294 168.952759,105.703529 
z"/>
<path fill="#2F465B" opacity="1.000000" stroke="none" 
	d="
M313.434509,55.114998 
	C314.121216,60.271675 310.399017,61.564072 306.857391,62.461216 
	C302.635468,63.530678 298.855682,62.367455 296.801636,58.140472 
	C296.025085,56.542484 295.503418,54.648201 295.484833,52.882465 
	C295.368011,41.779171 295.425720,30.674044 295.425720,19.222666 
	C297.232544,19.118923 298.807831,19.028475 300.808746,18.913588 
	C300.808746,21.623890 300.808746,24.044153 300.808746,26.985207 
	C304.408478,26.985207 307.630432,26.985207 311.098999,26.985207 
	C311.098999,29.095133 311.098999,30.684778 311.098999,32.642494 
	C307.886688,32.642494 304.794556,32.642494 301.117096,32.642494 
	C301.117096,40.047577 300.817261,47.128319 301.241547,54.165401 
	C301.458954,57.771271 305.913879,58.539761 308.861145,55.343990 
	C310.509277,53.556938 311.509399,53.284672 313.434509,55.114998 
z"/>
<path fill="#263F55" opacity="1.000000" stroke="none" 
	d="
M413.083984,101.980705 
	C413.083984,94.183754 413.083984,86.883171 413.083984,79.241570 
	C414.797791,79.153091 416.211273,79.080116 418.056396,78.984856 
	C418.218597,81.605721 418.367401,84.009727 418.542480,86.838295 
	C421.680267,86.838295 424.759003,86.838295 428.152954,86.838295 
	C428.252472,88.669037 428.329681,90.089165 428.431732,91.966293 
	C425.104065,92.136772 422.037628,92.293877 418.332733,92.483688 
	C418.332733,98.083321 418.070374,103.535591 418.454407,108.941948 
	C418.621460,111.293274 419.558014,114.764832 421.167236,115.504921 
	C422.743347,116.229774 425.618805,114.129257 428.918884,112.897469 
	C428.937958,112.910492 430.123352,113.720154 431.272308,114.504906 
	C429.001221,119.638107 425.331909,121.758949 420.192993,120.935799 
	C415.127808,120.124466 413.536041,116.388313 413.172058,111.958817 
	C412.913879,108.817039 413.097534,105.638954 413.083984,101.980705 
z"/>
<path fill="#294157" opacity="1.000000" stroke="none" 
	d="
M352.071350,86.781067 
	C353.644531,87.779869 354.843445,88.858856 356.192047,90.072548 
	C359.974304,86.742577 364.189697,84.943039 369.487061,87.322174 
	C369.487061,88.648643 369.487061,90.059464 369.487061,91.732231 
	C368.412476,91.732231 367.459778,91.765457 366.509949,91.726875 
	C360.082123,91.465744 357.006317,94.366066 356.986267,100.777611 
	C356.966156,107.215027 356.981873,113.652550 356.981873,120.370682 
	C355.180084,120.370682 353.772888,120.370682 352.257416,120.370682 
	C352.075165,119.937706 351.735565,119.503639 351.732178,119.066971 
	C351.680756,112.432930 351.771271,105.796089 351.604584,99.165543 
	C351.543243,96.725647 351.513123,93.947128 350.368103,91.956017 
	C348.863220,89.339127 349.576752,88.124207 352.071350,86.781067 
z"/>
<path fill="#31475D" opacity="1.000000" stroke="none" 
	d="
M278.206055,59.410690 
	C277.688385,54.304832 277.225037,49.552959 277.093567,44.791920 
	C276.934387,39.027485 277.055878,33.255302 277.055878,27.262201 
	C279.106384,27.262201 280.684082,27.262201 282.733337,27.262201 
	C282.733337,37.141190 282.733337,46.868454 282.733337,55.744900 
	C285.610870,56.757668 287.817322,57.534233 290.283173,58.402111 
	C285.961121,63.867580 283.236267,64.033066 278.206055,59.410690 
z"/>
<path fill="#1F3A51" opacity="1.000000" stroke="none" 
	d="
M408.004883,41.997002 
	C408.004883,47.137238 408.004883,51.779903 408.004883,56.046345 
	C410.694489,56.831223 412.981537,57.498619 415.268555,58.166016 
	C415.343567,58.885208 415.418610,59.604401 415.493622,60.323593 
	C412.940613,61.031311 409.945343,62.898445 407.952301,62.138184 
	C405.719421,61.286449 403.045746,58.136894 402.909027,55.847141 
	C402.346008,46.419544 402.673401,36.938759 402.673401,27.273771 
	C404.466003,27.183966 405.928528,27.110695 408.004883,27.006676 
	C408.004883,31.951752 408.004883,36.725590 408.004883,41.997002 
z"/>
<path fill="#233D53" opacity="1.000000" stroke="none" 
	d="
M446.132629,115.044418 
	C447.658051,115.814659 448.761200,116.544312 449.864319,117.273956 
	C449.957977,117.780670 450.051605,118.287384 450.145264,118.794090 
	C447.553192,119.464813 444.463318,121.316605 442.502350,120.490067 
	C440.332825,119.575600 437.977692,116.286194 437.828217,113.898056 
	C437.278625,105.119873 437.610199,96.286522 437.610199,87.197243 
	C439.448273,87.197243 441.000244,87.197243 442.943665,87.197243 
	C442.943665,95.670563 442.915283,103.971382 442.967529,112.271698 
	C442.978027,113.939453 442.409882,116.501549 446.132629,115.044418 
z"/>
<path fill="#797270" opacity="1.000000" stroke="none" 
	d="
M468.903381,179.508484 
	C468.892975,175.598785 468.892975,172.129715 468.892975,168.824219 
	C473.582123,168.576523 477.860962,168.027924 482.089783,168.289062 
	C483.735199,168.390656 486.351959,170.093369 486.635254,171.459015 
	C487.308228,174.703354 486.851837,178.181946 486.851837,181.565857 
	C486.175049,181.621201 485.498260,181.676544 484.821472,181.731873 
	C484.670288,179.420898 484.748779,177.062805 484.287933,174.815323 
	C483.975830,173.293549 482.905243,171.927322 482.173889,170.491516 
	C481.153748,171.920303 479.617737,173.225861 479.239868,174.808060 
	C478.730652,176.940094 479.113464,179.285187 479.113464,181.538849 
	C478.568024,181.605255 478.022614,181.671661 477.477173,181.738068 
	C477.243530,180.358170 477.158783,178.931534 476.743774,177.608536 
	C475.987427,175.197327 474.877106,170.762054 474.190674,170.814117 
	C470.049957,171.128113 471.494446,174.810150 471.230255,177.423370 
	C471.113647,178.576660 471.067657,179.737091 470.989624,180.894272 
	C470.297668,180.579224 469.605713,180.264175 468.903381,179.508484 
z"/>
<path fill="#857E7C" opacity="1.000000" stroke="none" 
	d="
M82.034012,164.192108 
	C84.451065,162.002808 84.694466,162.005402 84.770340,164.711792 
	C84.923615,170.178558 84.816032,175.652649 84.816032,181.576752 
	C80.897385,180.778473 76.291161,184.200500 74.102547,179.234955 
	C73.053383,176.854584 73.157021,173.133575 74.346542,170.861618 
	C75.303787,169.033264 78.679001,168.470886 80.981361,167.346802 
	C81.244583,167.718857 81.507797,168.090927 81.771019,168.462982 
	C81.853546,167.173447 81.936073,165.883911 82.034012,164.192108 
M81.656898,171.352814 
	C79.971031,171.501968 77.036903,171.243988 76.830833,171.875793 
	C76.184715,173.856766 76.328537,176.215591 76.707733,178.330994 
	C76.809677,178.899719 79.666397,179.678757 79.845230,179.412369 
	C80.818420,177.962845 81.445381,176.247345 81.988342,174.558060 
	C82.223518,173.826385 81.971870,172.938248 81.656898,171.352814 
z"/>
<path fill="#847D7B" opacity="1.000000" stroke="none" 
	d="
M88.781845,176.705750 
	C91.213081,174.950516 93.519722,173.538925 95.826363,172.127335 
	C95.891029,171.761703 95.955704,171.396088 96.020370,171.030457 
	C93.836746,170.851013 91.653130,170.671570 89.469505,170.492126 
	C89.391037,170.085480 89.312561,169.678848 89.234085,169.272202 
	C91.433693,168.903366 93.898300,167.768616 95.748802,168.408829 
	C97.220467,168.918015 98.480881,171.484818 98.864693,173.339005 
	C99.389977,175.876633 98.995941,178.604553 98.995941,181.967438 
	C95.393684,179.656006 88.822426,185.970078 88.781845,176.705750 
z"/>
<path fill="#847D7B" opacity="1.000000" stroke="none" 
	d="
M224.089935,170.835602 
	C221.961044,170.587051 220.111725,170.587051 218.262390,170.587051 
	C218.171600,170.171036 218.080811,169.755020 217.990021,169.339005 
	C220.137741,168.940704 222.462021,167.868011 224.374405,168.368668 
	C225.771851,168.734512 227.253708,171.047241 227.581802,172.712082 
	C228.112000,175.402527 227.724365,178.273849 227.724365,181.263550 
	C225.980164,181.427399 224.375000,181.949585 222.968475,181.621140 
	C220.982285,181.157349 219.142975,180.064575 217.240891,179.240677 
	C218.534683,177.450256 219.736908,175.582794 221.155289,173.897186 
	C222.061356,172.820389 223.287094,172.012589 224.089935,170.835602 
z"/>
<path fill="#847D7B" opacity="1.000000" stroke="none" 
	d="
M285.683838,181.222229 
	C284.381409,181.332214 283.293732,182.064560 282.517181,181.817795 
	C280.813416,181.276367 277.972961,180.293259 277.935364,179.392838 
	C277.864532,177.696777 279.126709,175.610870 280.443726,174.297806 
	C281.477539,173.267090 283.428528,173.156296 284.972076,172.636856 
	C284.994934,172.104813 285.017792,171.572769 285.040619,171.040710 
	C282.887787,170.878616 280.734924,170.716522 278.582062,170.554413 
	C278.486237,170.163239 278.390381,169.772049 278.294556,169.380875 
	C280.409943,168.962570 282.699829,167.865646 284.583191,168.349854 
	C285.982269,168.709579 287.915161,171.256958 287.743469,172.589294 
	C287.366821,175.511719 290.393097,179.284836 285.683838,181.222229 
z"/>
<path fill="#7F7775" opacity="1.000000" stroke="none" 
	d="
M490.910278,177.986221 
	C490.809875,175.839157 490.107941,173.436310 490.996033,172.412033 
	C492.622131,170.536484 495.427643,168.112244 497.296234,168.441666 
	C499.334961,168.801102 500.868408,172.026291 502.622101,174.002274 
	C502.249329,174.496811 501.876556,174.991348 501.503815,175.485870 
	C498.804993,175.669724 496.106171,175.853577 493.187408,176.052414 
	C494.191101,180.814606 497.552551,179.835083 500.933319,179.173721 
	C497.565460,183.300125 494.732574,182.906891 490.910278,177.986221 
z"/>
<path fill="#7F7775" opacity="1.000000" stroke="none" 
	d="
M465.497742,174.014511 
	C462.760834,175.102051 460.061279,175.807800 457.153961,176.567886 
	C458.050018,180.947205 461.545319,179.635406 464.590973,179.278397 
	C464.607544,179.884659 464.624115,180.490906 464.640686,181.097168 
	C462.427948,181.211365 459.291443,182.281631 458.204132,181.231049 
	C456.236237,179.329666 454.419617,176.094360 454.582825,173.546921 
	C454.707520,171.601181 457.716919,168.833298 459.920898,168.256287 
	C463.514465,167.315430 465.061035,170.328796 465.497742,174.014511 
z"/>
<path fill="#7B7371" opacity="1.000000" stroke="none" 
	d="
M358.007233,171.031067 
	C358.007233,174.655151 358.007233,177.798889 358.007233,180.925339 
	C348.462097,181.579559 346.555084,180.702484 346.269562,175.647339 
	C345.987854,170.659210 348.708008,168.176193 354.885559,167.900238 
	C355.270660,165.996445 355.662140,164.061371 356.053589,162.126297 
	C356.704803,162.158112 357.356018,162.189911 358.007233,162.221725 
	C358.007233,164.998062 358.007233,167.774384 358.007233,171.031067 
M355.411804,177.672699 
	C355.456757,176.029175 356.100525,174.015945 355.378296,172.846039 
	C354.655060,171.674606 352.567383,171.345490 351.077789,170.647171 
	C350.528259,173.020050 349.087708,175.634033 349.648529,177.706467 
	C350.395721,180.467697 352.944702,180.526657 355.411804,177.672699 
z"/>
<path fill="#7E7674" opacity="1.000000" stroke="none" 
	d="
M398.171539,180.785385 
	C391.931793,182.969009 387.931580,180.475204 388.036682,174.863968 
	C388.111572,170.864182 390.913391,167.698303 394.348724,168.057770 
	C398.658997,168.508774 399.499481,171.434845 399.075195,175.489929 
	C396.394135,175.688202 393.832642,175.877625 391.271149,176.067062 
	C391.081909,176.548401 390.892700,177.029724 390.703491,177.511063 
	C392.439484,178.243134 394.167725,178.994415 395.914917,179.698822 
	C396.736328,180.030029 397.594025,180.271103 398.171539,180.785385 
z"/>
<path fill="#7F7775" opacity="1.000000" stroke="none" 
	d="
M299.661865,170.698959 
	C302.090790,169.728287 304.751892,168.009521 306.402527,168.701401 
	C308.255463,169.478119 309.195343,172.433105 311.289551,175.576935 
	C306.868286,175.576935 304.277740,175.576935 301.553925,175.576935 
	C302.717621,179.773529 302.717621,179.773529 309.121521,179.745224 
	C306.825714,182.700272 304.130280,182.640656 301.689056,181.086929 
	C297.798096,178.610535 297.597382,174.954681 299.661865,170.698959 
z"/>
<path fill="#7F7775" opacity="1.000000" stroke="none" 
	d="
M178.866165,172.812103 
	C180.284149,169.065353 182.818283,166.851837 186.231659,168.479172 
	C188.200989,169.418045 189.214645,172.361481 191.439453,175.506882 
	C186.903275,175.712738 184.294937,175.831100 181.441284,175.960602 
	C182.153336,180.991547 186.005356,179.448898 189.014175,179.499832 
	C188.981125,180.097855 188.948074,180.695877 188.915024,181.293900 
	C186.628662,181.293900 184.083755,181.939331 182.113571,181.150070 
	C178.743271,179.799927 178.081970,176.602707 178.866165,172.812103 
z"/>
<path fill="#7E7674" opacity="1.000000" stroke="none" 
	d="
M134.027130,179.827820 
	C135.627045,179.691284 136.854645,179.487976 138.445999,179.224411 
	C136.122757,182.194366 133.950577,182.783371 131.369965,181.201859 
	C127.810799,179.020691 126.859192,175.432755 128.745483,172.164963 
	C129.871887,170.213577 133.086777,168.241501 135.228348,168.378677 
	C138.783676,168.606430 139.603195,171.832550 138.794662,175.563599 
	C136.350693,175.695343 133.909210,175.826965 130.176300,176.028183 
	C131.764954,177.732986 132.709885,178.747009 134.027130,179.827820 
z"/>
<path fill="#7E7674" opacity="1.000000" stroke="none" 
	d="
M363.212952,179.857697 
	C362.481659,177.850021 361.504974,176.093201 361.622528,174.412949 
	C361.878693,170.752090 363.734375,167.827332 367.842377,168.112213 
	C372.059570,168.404694 373.085449,171.420670 372.608826,175.584534 
	C369.880920,175.707123 367.272217,175.824356 364.390350,175.953873 
	C365.222198,180.837082 368.716064,179.953644 372.070618,179.527939 
	C369.125275,182.915344 366.326904,182.454178 363.212952,179.857697 
z"/>
<path fill="#7E7674" opacity="1.000000" stroke="none" 
	d="
M324.004242,168.017426 
	C328.381287,168.783295 329.324799,171.434280 328.816986,175.427597 
	C326.259949,175.654434 323.717468,175.879959 320.967010,176.123947 
	C321.542023,181.175781 325.357635,179.377914 328.163208,179.505753 
	C328.148285,180.043777 328.133362,180.581818 328.118469,181.119843 
	C325.969391,181.234573 323.092346,182.256210 321.841370,181.252075 
	C319.951080,179.734818 318.462341,176.904221 318.130646,174.452118 
	C317.653442,170.924408 319.861969,168.541367 324.004242,168.017426 
z"/>
<path fill="#797270" opacity="1.000000" stroke="none" 
	d="
M451.362610,172.648865 
	C451.580688,180.011139 449.931030,181.803696 443.116150,182.097687 
	C442.621613,183.762711 442.128998,185.426346 441.636383,187.089981 
	C441.243805,187.024323 440.851196,186.958649 440.458618,186.892975 
	C440.458618,180.950043 440.458618,175.007126 440.458618,168.624802 
	C444.057312,169.517090 449.316437,165.193542 451.362610,172.648865 
M442.454346,177.751358 
	C444.077820,178.187241 445.701263,178.623123 447.324738,179.059021 
	C447.804871,176.917282 448.701752,174.748260 448.564056,172.647003 
	C448.507446,171.782837 446.223328,171.064590 444.952423,170.279968 
	C444.066650,171.848877 443.106659,173.382629 442.337189,175.006638 
	C442.083313,175.542374 442.321533,176.311249 442.454346,177.751358 
z"/>
<path fill="#88817F" opacity="1.000000" stroke="none" 
	d="
M273.578308,170.855621 
	C273.737152,174.731232 273.737152,178.211777 273.737152,181.692337 
	C273.014130,181.728378 272.291107,181.764420 271.568115,181.800461 
	C271.413086,179.444794 271.494507,177.039963 271.018677,174.750992 
	C270.709351,173.262863 269.588409,171.943436 268.831085,170.548431 
	C267.835541,171.994034 266.388885,173.316971 265.954315,174.915115 
	C265.359955,177.100922 265.535095,179.495972 265.380402,181.801346 
	C264.834137,181.792816 264.287842,181.784286 263.741577,181.775757 
	C263.741577,177.413528 263.741577,173.051315 263.741577,168.402664 
	C266.576233,170.301651 270.930328,165.215591 273.578308,170.855621 
z"/>
<path fill="#7E7674" opacity="1.000000" stroke="none" 
	d="
M163.421432,174.959976 
	C162.565048,173.158249 161.714005,171.815948 160.862946,170.473648 
	C159.895493,171.957870 158.451660,173.332596 158.079086,174.953568 
	C157.594406,177.062241 157.960602,179.366501 157.960602,181.586578 
	C157.208282,181.597076 156.455963,181.607574 155.703659,181.618073 
	C155.486496,177.395218 155.269348,173.172363 155.014771,168.221527 
	C158.775040,168.708511 163.812317,168.111633 164.676453,169.735489 
	C166.421158,173.014069 165.898560,177.499191 166.311096,181.486664 
	C165.531113,181.582291 164.751144,181.677902 163.971161,181.773529 
	C163.789703,179.655487 163.608231,177.537445 163.421432,174.959976 
z"/>
<path fill="#766E6C" opacity="1.000000" stroke="none" 
	d="
M436.041992,172.436188 
	C436.253082,180.525375 434.236023,182.517517 427.376587,181.463654 
	C427.170593,183.293365 426.971436,185.121765 426.772247,186.950165 
	C426.332886,186.934174 425.893524,186.918198 425.454163,186.902206 
	C425.454163,180.978775 425.454163,175.055344 425.454163,168.723526 
	C428.884247,169.407242 433.846130,165.397491 436.041992,172.436188 
M430.458740,170.126007 
	C425.494110,171.329376 427.104919,175.158005 427.578064,178.203400 
	C427.658569,178.721558 431.276337,179.605026 431.979218,178.948517 
	C434.602600,176.498260 434.825073,173.470184 432.111145,170.673264 
	C431.892548,170.447998 431.528656,170.363708 430.458740,170.126007 
z"/>
<path fill="#7F7775" opacity="1.000000" stroke="none" 
	d="
M213.658173,175.203003 
	C213.460068,177.683792 213.261597,179.732880 213.063126,181.781982 
	C212.479065,181.754517 211.894989,181.727051 211.310913,181.699585 
	C211.197113,179.182175 211.335144,176.616837 210.868896,174.166458 
	C210.615692,172.835678 209.334534,171.700500 208.517059,170.477081 
	C207.474243,171.729263 205.873550,172.840561 205.513824,174.265228 
	C204.910446,176.654907 205.097443,179.244171 204.951859,181.749451 
	C204.466415,181.733032 203.980988,181.716629 203.495560,181.700211 
	C203.495560,177.438705 203.495560,173.177185 203.495560,168.407745 
	C206.198807,168.623749 209.372009,168.389145 212.126709,169.351944 
	C213.144165,169.707550 213.176285,172.882324 213.658173,175.203003 
z"/>
<path fill="#807977" opacity="1.000000" stroke="none" 
	d="
M512.031921,168.034866 
	C516.297913,170.839905 517.201782,177.197250 513.022705,181.735153 
	C513.022705,179.127579 513.291199,176.479675 512.908142,173.929642 
	C512.719849,172.676239 511.324554,171.604156 510.475464,170.450027 
	C509.519257,171.609390 508.003235,172.649811 507.726196,173.953491 
	C507.189117,176.481171 507.348846,179.156937 507.219879,181.771332 
	C506.675507,181.766434 506.131104,181.761520 505.586731,181.756622 
	C505.586731,177.504120 505.586731,173.251633 505.586731,168.959778 
	C507.330017,168.685776 509.488647,168.346481 512.031921,168.034866 
z"/>
<path fill="#7E7674" opacity="1.000000" stroke="none" 
	d="
M54.797516,179.589996 
	C52.012039,180.292465 48.732861,181.795441 47.097355,180.743332 
	C45.289116,179.580124 44.262741,176.093170 44.206978,173.589035 
	C44.134003,170.312210 46.469673,168.077621 50.014496,168.059799 
	C53.544468,168.042023 55.642033,170.143677 55.947159,173.518814 
	C56.116398,175.390854 55.365021,177.346115 54.797516,179.589996 
M51.727509,170.699493 
	C50.158062,171.326462 47.422741,171.734711 47.255749,172.624817 
	C46.878731,174.634415 47.582626,176.948761 48.300209,178.978882 
	C48.450314,179.403549 51.384998,179.561035 51.613167,179.114456 
	C52.508072,177.362808 52.963200,175.342239 53.297688,173.373337 
	C53.409302,172.716339 52.670998,171.914932 51.727509,170.699493 
z"/>
<path fill="#7B7371" opacity="1.000000" stroke="none" 
	d="
M259.260803,177.222992 
	C257.560211,181.467514 254.742859,183.171417 250.869629,181.250458 
	C247.204025,179.432465 246.509460,176.067673 247.803101,172.306732 
	C248.946472,168.982574 251.434372,167.320221 254.752090,168.233261 
	C258.993256,169.400452 260.128235,172.745483 259.260803,177.222992 
M253.476166,179.840988 
	C257.826813,178.341415 257.788757,175.144058 256.004547,171.943161 
	C255.509109,171.054321 252.678864,170.510223 251.610596,171.087143 
	C249.006195,172.493637 249.506042,176.714798 252.275635,179.498611 
	C252.386459,179.610001 252.566162,179.652847 253.476166,179.840988 
z"/>
<path fill="#7B7371" opacity="1.000000" stroke="none" 
	d="
M409.232483,177.372559 
	C409.072235,176.490906 408.997559,175.996948 408.990295,175.501984 
	C408.932556,171.570419 410.367676,168.126968 414.587128,168.284958 
	C416.735260,168.365417 419.775635,170.656158 420.653015,172.702332 
	C422.069641,176.006027 421.274872,179.793915 417.318970,181.446472 
	C413.568604,183.013107 410.954468,181.269440 409.232483,177.372559 
M418.129852,177.524551 
	C418.323303,176.720749 418.899445,175.751678 418.637299,175.144653 
	C417.900360,173.438370 417.006653,171.695892 415.733734,170.401291 
	C415.432281,170.094711 412.403259,171.412094 412.348938,172.115326 
	C412.173706,174.384308 412.800537,176.715240 413.118225,179.022293 
	C414.683685,178.749680 416.249176,178.477066 418.129852,177.524551 
z"/>
<path fill="#2C4359" opacity="1.000000" stroke="none" 
	d="
M340.214478,74.670883 
	C339.582825,76.094376 338.955719,77.508629 337.873169,78.299309 
	C335.090637,80.331612 332.106171,82.087379 329.230865,83.935379 
	C325.990173,79.930504 326.255219,79.567276 337.818359,71.854202 
	C338.535034,72.678772 339.273285,73.528183 340.214478,74.670883 
z"/>
<path fill="#807977" opacity="1.000000" stroke="none" 
	d="
M386.013092,169.393997 
	C384.995056,172.894897 384.062927,176.064331 382.830963,179.112595 
	C382.408325,180.158340 381.235809,180.901016 380.405945,181.782166 
	C379.668304,180.998688 378.598785,180.339020 378.252045,179.409683 
	C376.931396,175.870102 375.843964,172.243530 374.669403,168.649445 
	C375.299622,168.430161 375.929871,168.210876 376.560089,167.991577 
	C377.792450,171.184280 379.024811,174.376968 380.607574,178.477554 
	C381.618011,175.409927 382.220612,172.978638 383.256805,170.748810 
	C383.638977,169.926437 385.043274,169.579041 386.013092,169.393997 
z"/>
<path fill="#807977" opacity="1.000000" stroke="none" 
	d="
M332.247864,175.053802 
	C332.088837,171.303650 330.004822,167.707230 332.733490,165.587585 
	C333.220245,168.182327 333.686981,170.670517 334.153748,173.158707 
	C333.599884,172.772156 333.697540,177.968216 338.472626,180.972855 
	C333.672119,182.693741 332.698578,181.833267 332.247864,175.053802 
z"/>
<path fill="#807977" opacity="1.000000" stroke="none" 
	d="
M38.547207,168.134842 
	C39.616096,168.744659 40.307312,169.279480 41.645260,170.314682 
	C38.915138,170.439865 37.067757,170.524582 34.881130,170.624847 
	C35.964813,175.073090 45.792694,174.251755 40.188480,180.763443 
	C37.941399,183.374390 34.631397,182.192963 31.592789,179.698914 
	C32.774284,179.242844 33.207771,178.959900 33.662338,178.920547 
	C35.399025,178.770248 37.142498,178.698349 38.883438,178.597183 
	C37.667828,177.492828 36.310795,176.505173 35.276196,175.251450 
	C34.231701,173.985733 33.506947,172.456146 32.642113,171.042145 
	C34.484581,170.048050 36.327053,169.053940 38.547207,168.134842 
z"/>
<path fill="#847D7B" opacity="1.000000" stroke="none" 
	d="
M236.805161,168.188568 
	C237.412552,168.792175 237.959106,169.622849 237.792038,169.807388 
	C233.589310,174.449249 233.700241,177.749496 238.259018,181.012146 
	C238.110077,181.417145 237.961136,181.822144 237.812180,182.227142 
	C236.088684,181.440399 232.965408,180.786331 232.876175,179.844711 
	C232.409683,174.922348 229.408401,169.750275 233.442657,164.565094 
	C234.570938,165.913895 235.491379,167.014236 236.805161,168.188568 
z"/>
<path fill="#857E7C" opacity="1.000000" stroke="none" 
	d="
M118.986641,170.499268 
	C119.411774,168.454422 120.148972,166.643082 120.733604,165.206589 
	C122.036194,167.235062 123.222832,169.082962 124.233238,170.656448 
	C121.469215,172.642654 121.616608,178.120026 126.261726,180.575638 
	C122.885643,182.796951 120.622200,181.852386 120.092926,177.945892 
	C119.768257,175.549637 119.559509,173.137680 118.986641,170.499268 
z"/>
<path fill="#847D7B" opacity="1.000000" stroke="none" 
	d="
M525.966736,169.134689 
	C522.680664,170.654861 522.559570,173.470764 523.081665,176.173401 
	C523.408020,177.863022 524.678284,179.370285 525.813599,181.501068 
	C524.194824,182.844833 521.824768,182.460449 520.841003,179.795227 
	C519.594666,176.418533 518.946411,172.715744 518.742188,169.113800 
	C518.664917,167.751312 520.544128,166.277893 521.473206,164.939148 
	C523.002380,166.264481 524.432739,167.504150 525.966736,169.134689 
z"/>
<path fill="#8A8280" opacity="1.000000" stroke="none" 
	d="
M294.898895,173.833405 
	C295.093231,176.693649 295.287598,179.085312 295.558441,182.417480 
	C294.224731,181.585236 292.520325,181.035217 292.500427,180.429825 
	C292.301361,174.372604 292.379517,168.306274 292.379517,162.242523 
	C293.114655,162.200409 293.849762,162.158295 294.584900,162.116165 
	C294.689606,165.865723 294.794281,169.615280 294.898895,173.833405 
z"/>
<path fill="#797270" opacity="1.000000" stroke="none" 
	d="
M173.466888,167.488342 
	C174.699341,168.167343 175.726318,168.516006 177.028732,168.958206 
	C171.721527,172.571396 171.740631,177.734406 176.667831,181.006775 
	C176.500473,181.419952 176.333099,181.833130 176.165741,182.246292 
	C174.480103,181.380630 171.331924,180.483810 171.349594,179.654404 
	C171.453125,174.792969 168.206360,169.736206 172.161392,164.535843 
	C172.617249,165.622498 172.939331,166.390259 173.466888,167.488342 
z"/>
<path fill="#88817F" opacity="1.000000" stroke="none" 
	d="
M193.053192,169.796478 
	C195.466232,168.923706 197.840485,168.462830 200.921432,167.864761 
	C198.796570,170.580261 196.779419,172.258301 196.011139,174.387085 
	C195.205002,176.620728 195.596161,179.286469 195.464066,181.763382 
	C194.761871,181.777573 194.059677,181.791763 193.357468,181.805954 
	C193.243118,177.940094 193.128769,174.074219 193.053192,169.796478 
z"/>
<path fill="#88817F" opacity="1.000000" stroke="none" 
	d="
M103.037193,178.603516 
	C103.035858,175.039688 103.035858,171.918396 103.035858,168.764633 
	C105.748207,168.574753 108.055138,168.413254 110.362061,168.251770 
	C110.751808,168.637421 111.141556,169.023087 111.531303,169.408752 
	C102.982697,170.742722 107.297028,177.568863 104.590050,183.032043 
	C103.779793,180.950424 103.409157,179.998245 103.037193,178.603516 
z"/>
<path fill="#2D445A" opacity="1.000000" stroke="none" 
	d="
M443.015198,74.926117 
	C442.506165,76.841133 442.108093,78.705383 440.988251,79.883644 
	C440.568848,80.324913 437.748993,79.527664 437.314331,78.653389 
	C436.742584,77.503281 437.082703,74.615509 437.669006,74.423462 
	C439.207764,73.919395 441.092468,74.471458 443.015198,74.926117 
z"/>
<path fill="#2C4359" opacity="1.000000" stroke="none" 
	d="
M407.811249,18.966400 
	C405.697540,18.984528 403.733398,18.980471 402.086395,18.255732 
	C401.701447,18.086342 401.930695,15.103875 402.733490,14.100987 
	C403.376068,13.298283 406.263245,12.983164 406.511688,13.409263 
	C407.408661,14.947802 407.611511,16.891006 407.811249,18.966400 
z"/>
<path fill="#294157" opacity="1.000000" stroke="none" 
	d="
M281.548737,19.663364 
	C279.490875,19.042690 277.629700,18.387127 276.204315,17.205770 
	C275.905273,16.957901 276.882019,14.238357 277.868195,13.636556 
	C278.837677,13.044921 281.665771,13.426845 281.770691,13.852170 
	C282.206421,15.618424 281.921143,17.562563 281.548737,19.663364 
z"/>
<path fill="#8A8280" opacity="1.000000" stroke="none" 
	d="
M151.003418,172.281403 
	C151.003571,175.728500 151.003571,178.724854 151.003571,181.721191 
	C150.279007,181.711929 149.554443,181.702682 148.829880,181.693420 
	C147.608612,177.281372 147.950531,172.819901 148.667999,168.346558 
	C149.215561,168.275940 149.763123,168.205338 150.310684,168.134720 
	C150.541534,169.366699 150.772400,170.598679 151.003418,172.281403 
z"/>
<path fill="#8A8280" opacity="1.000000" stroke="none" 
	d="
M241.101135,175.002502 
	C241.285965,172.405457 241.470749,170.264114 241.655533,168.122772 
	C242.186966,168.170212 242.718399,168.217636 243.249832,168.265076 
	C243.249832,172.755234 243.249832,177.245377 243.249832,181.735535 
	C242.718155,181.771652 242.186462,181.807770 241.654785,181.843887 
	C241.470215,179.715332 241.285645,177.586761 241.101135,175.002502 
z"/>
<path fill="#6F6765" opacity="1.000000" stroke="none" 
	d="
M405.007996,171.949005 
	C405.189209,175.433990 405.370361,178.446228 405.548462,181.407120 
	C402.486816,180.462433 401.311279,169.468414 403.676910,162.455444 
	C404.120605,162.433167 404.564301,162.410889 405.007996,162.388611 
	C405.007996,165.417831 405.007996,168.447037 405.007996,171.949005 
z"/>
<path fill="#6F6765" opacity="1.000000" stroke="none" 
	d="
M59.882462,164.500717 
	C60.208469,163.445343 60.524101,162.837753 60.839729,162.230179 
	C61.268730,162.287582 61.697731,162.345001 62.126732,162.402420 
	C62.126732,168.759872 62.126732,175.117325 62.126732,181.283264 
	C59.857643,180.490402 59.857643,180.490402 59.882462,164.500717 
z"/>
<path fill="#766E6C" opacity="1.000000" stroke="none" 
	d="
M69.154251,180.884827 
	C68.317047,180.891800 67.133560,180.557281 67.120354,180.181625 
	C66.983955,176.302536 67.036560,172.416809 67.731071,168.477020 
	C70.523849,172.196884 69.184502,176.470520 69.154251,180.884827 
z"/>
<path fill="#766E6C" opacity="1.000000" stroke="none" 
	d="
M112.904358,178.616791 
	C112.902771,174.932510 112.902771,171.700394 112.902771,168.468262 
	C113.406540,168.451813 113.910309,168.435349 114.414078,168.418900 
	C114.414078,172.773834 114.414078,177.128784 114.414078,181.483719 
	C114.215668,181.566742 114.017265,181.649765 113.818855,181.732788 
	C113.514549,180.844849 113.210243,179.956894 112.904358,178.616791 
z"/>
<path fill="#FCFDFD" opacity="1.000000" stroke="none" 
	d="
M94.929543,98.510857 
	C94.929543,98.510857 94.853294,98.584557 94.845337,98.553268 
	C80.496445,105.337753 61.738152,93.693985 59.999779,76.897362 
	C57.982948,57.410252 74.991493,43.069729 94.529449,48.217163 
	C94.938614,48.305183 94.865715,48.484200 94.643570,48.817978 
	C86.824242,65.684738 86.264633,82.145279 94.929543,98.510857 
z"/>
<path fill="#0F95A0" opacity="1.000000" stroke="none" 
	d="
M95.301666,98.417053 
	C86.264633,82.145279 86.824242,65.684738 94.700844,48.895821 
	C106.791397,53.366409 112.907379,62.448830 112.611221,75.878052 
	C112.227837,77.021370 112.142754,77.552071 112.057671,78.082764 
	C110.806992,88.237923 104.945892,94.661118 95.301666,98.417053 
z"/>
<path fill="#0F959F" opacity="1.000000" stroke="none" 
	d="
M112.248749,77.884583 
	C112.142754,77.552071 112.227837,77.021370 112.500404,76.295235 
	C112.605209,76.628662 112.522522,77.157539 112.248749,77.884583 
z"/>
<path fill="#FBFBFC" opacity="1.000000" stroke="none" 
	d="
M285.492920,96.060181 
	C287.972534,92.183212 291.536072,90.423378 295.097351,92.058517 
	C297.721680,93.263458 300.375427,96.225182 301.305908,98.981445 
	C305.236084,110.623238 297.715851,118.070137 285.263397,115.144287 
	C285.263397,108.927147 285.263397,102.673035 285.492920,96.060181 
z"/>
<path fill="#FCFCFC" opacity="1.000000" stroke="none" 
	d="
M343.341797,35.203289 
	C343.337189,40.014370 343.362305,44.345081 343.311615,48.674904 
	C343.260315,53.059399 341.084503,55.947243 336.840790,56.999294 
	C332.308472,58.122890 328.553406,56.240166 326.659119,51.888287 
	C324.328857,46.534855 324.306702,41.131901 327.543488,36.137245 
	C330.538544,31.515713 335.371063,31.526646 340.089325,32.146370 
	C341.264832,32.300766 342.260132,33.826889 343.341797,35.203289 
z"/>
<path fill="#F4F4F6" opacity="1.000000" stroke="none" 
	d="
M431.534058,31.962048 
	C433.252625,31.911047 435.000488,31.399258 435.799927,32.050915 
	C437.664825,33.571098 440.106415,35.531574 440.338287,37.541653 
	C440.521484,39.129974 438.054901,42.112232 436.247894,42.614441 
	C432.527985,43.648289 428.462128,43.437340 423.803528,43.795082 
	C424.526093,38.211491 426.068604,34.080006 431.534058,31.962048 
z"/>
<path fill="#FBFBFB" opacity="1.000000" stroke="none" 
	d="
M171.319763,52.457760 
	C170.742691,47.966114 169.544968,43.662659 170.207916,39.667984 
	C171.098312,34.302845 176.095734,31.571503 181.908661,31.933435 
	C187.302979,32.269299 191.129608,35.679489 192.145248,41.056038 
	C193.423691,47.823673 191.150482,53.660141 186.278702,56.118496 
	C181.401932,58.579369 175.890961,57.333397 171.319763,52.457760 
z"/>
<path fill="#F8F8F9" opacity="1.000000" stroke="none" 
	d="
M376.990295,103.991951 
	C378.100677,92.869598 382.603485,89.963875 394.709167,92.465752 
	C394.709167,97.190765 394.814270,102.003517 394.680847,106.809647 
	C394.535309,112.053841 391.735779,115.358658 387.236145,115.954086 
	C382.892700,116.528831 379.318451,113.860344 377.829529,108.809654 
	C377.409790,107.385841 377.263153,105.881508 376.990295,103.991951 
z"/>
<path fill="#FCFCFC" opacity="1.000000" stroke="none" 
	d="
M247.403946,113.756516 
	C242.406769,108.832321 241.909698,103.316116 244.406174,97.524658 
	C246.323608,93.076462 250.173569,91.330460 254.900070,91.541183 
	C259.443604,91.743767 262.994995,93.770523 264.460083,98.161812 
	C266.156067,103.244995 266.095764,108.393753 262.221771,112.614746 
	C259.162750,115.947723 255.186264,116.774277 250.852173,115.423782 
	C249.763000,115.084404 248.759521,114.469963 247.403946,113.756516 
z"/>
<path fill="#F4F4F6" opacity="1.000000" stroke="none" 
	d="
M322.271667,102.683380 
	C320.109619,99.357262 321.990112,94.416389 325.774261,92.298943 
	C329.187195,90.389214 333.822174,91.179832 335.585510,93.972527 
	C337.501434,97.006966 336.174988,100.955803 332.517365,101.796524 
	C329.346527,102.525375 325.987640,102.436089 322.271667,102.683380 
z"/>
<path fill="#FBFBFC" opacity="1.000000" stroke="none" 
	d="
M462.715576,93.366867 
	C470.619202,89.877998 477.236633,92.012947 479.583069,98.468651 
	C482.182434,105.620239 479.075714,113.334869 472.703430,115.378975 
	C467.970703,116.897156 463.661041,115.896339 460.636505,111.997269 
	C457.071503,107.401520 457.086731,102.166313 459.585602,97.018745 
	C460.211426,95.729675 461.440552,94.733490 462.715576,93.366867 
z"/>
<path fill="#FBFBFB" opacity="1.000000" stroke="none" 
	d="
M202.773712,101.360214 
	C204.855103,93.166916 210.645615,89.729889 217.765930,92.067810 
	C223.899948,94.081879 226.777832,102.321083 223.817459,109.393013 
	C221.398712,115.171066 214.549469,117.748520 208.745529,114.871452 
	C203.307144,112.175606 202.221359,107.305298 202.773712,101.360214 
z"/>
<path fill="#F8F8F9" opacity="1.000000" stroke="none" 
	d="
M81.799126,171.737000 
	C81.971870,172.938248 82.223518,173.826385 81.988342,174.558060 
	C81.445381,176.247345 80.818420,177.962845 79.845230,179.412369 
	C79.666397,179.678757 76.809677,178.899719 76.707733,178.330994 
	C76.328537,176.215591 76.184715,173.856766 76.830833,171.875793 
	C77.036903,171.243988 79.971031,171.501968 81.799126,171.737000 
z"/>
<path fill="#F2F1F1" opacity="1.000000" stroke="none" 
	d="
M355.246887,178.022781 
	C352.944702,180.526657 350.395721,180.467697 349.648529,177.706467 
	C349.087708,175.634033 350.528259,173.020050 351.077789,170.647171 
	C352.567383,171.345490 354.655060,171.674606 355.378296,172.846039 
	C356.100525,174.015945 355.456757,176.029175 355.246887,178.022781 
z"/>
<path fill="#F2F1F1" opacity="1.000000" stroke="none" 
	d="
M442.394562,177.362442 
	C442.321533,176.311249 442.083313,175.542374 442.337189,175.006638 
	C443.106659,173.382629 444.066650,171.848877 444.952423,170.279968 
	C446.223328,171.064590 448.507446,171.782837 448.564056,172.647003 
	C448.701752,174.748260 447.804871,176.917282 447.324738,179.059021 
	C445.701263,178.623123 444.077820,178.187241 442.394562,177.362442 
z"/>
<path fill="#F2F1F1" opacity="1.000000" stroke="none" 
	d="
M430.845520,170.169952 
	C431.528656,170.363708 431.892548,170.447998 432.111145,170.673264 
	C434.825073,173.470184 434.602600,176.498260 431.979218,178.948517 
	C431.276337,179.605026 427.658569,178.721558 427.578064,178.203400 
	C427.104919,175.158005 425.494110,171.329376 430.845520,170.169952 
z"/>
<path fill="#F2F1F1" opacity="1.000000" stroke="none" 
	d="
M52.024361,170.939514 
	C52.670998,171.914932 53.409302,172.716339 53.297688,173.373337 
	C52.963200,175.342239 52.508072,177.362808 51.613167,179.114456 
	C51.384998,179.561035 48.450314,179.403549 48.300209,178.978882 
	C47.582626,176.948761 46.878731,174.634415 47.255749,172.624817 
	C47.422741,171.734711 50.158062,171.326462 52.024361,170.939514 
z"/>
<path fill="#F8F8F9" opacity="1.000000" stroke="none" 
	d="
M253.094971,179.784302 
	C252.566162,179.652847 252.386459,179.610001 252.275635,179.498611 
	C249.506042,176.714798 249.006195,172.493637 251.610596,171.087143 
	C252.678864,170.510223 255.509109,171.054321 256.004547,171.943161 
	C257.788757,175.144058 257.826813,178.341415 253.094971,179.784302 
z"/>
<path fill="#F2F1F1" opacity="1.000000" stroke="none" 
	d="
M417.972229,177.864502 
	C416.249176,178.477066 414.683685,178.749680 413.118225,179.022293 
	C412.800537,176.715240 412.173706,174.384308 412.348938,172.115326 
	C412.403259,171.412094 415.432281,170.094711 415.733734,170.401291 
	C417.006653,171.695892 417.900360,173.438370 418.637299,175.144653 
	C418.899445,175.751678 418.323303,176.720749 417.972229,177.864502 
z"/>
</svg>